<svg xmlns="http://www.w3.org/2000/svg" xmlns:xlink="http://www.w3.org/1999/xlink" version="1.1" x="0px" y="0px" width="332.211px" height="247.17px" viewBox="0 0 332.211 247.17" enable-background="new 0 0 332.211 247.17" xml:space="preserve"><g><path d="M59.041 96.641c-1.083-0.758-2.826 0.478-4.352 0.311C55.911 97.8 57.6 96.6 59 96.641z"/><path d="M91.668 97.883c0.639 1.3 2.635-0.771 4.662-0.311c1.499 0.3 1.2 1.4 2.5 1.9 C98.371 96.1 93.9 96.4 91.7 97.883z"/><path d="M15.538 126.784c3.457 1.2 8.4 1.6 12.1 2.485c1.014 0.2 2.9 0.2 3.1 1.6 c-2.208 1.385-5.802-0.088-8.701-0.621c-2.808-0.518-7.524-0.176-7.457-3.107C15.002 127.1 15 126.7 15.5 126.784z M14.916 127.715c1.377 1.7 4.6 1.7 7.5 2.175c2.687 0.5 5.6 1.5 8.1 0.9 C25.409 129.7 20.2 128.6 14.9 127.715z"/><path d="M26.723 131.755c0.672 0.1 1.5 0.2 2.2 0.311c0.399 0.1 1.7 0.2 1.6 0.9 c0.319 1.889-1.7 1.344-3.108 1.242c-0.605-0.043-1.416-0.468-2.174-0.621c-2.658-0.538-4.918-0.642-7.148-1.242 c-1.671-0.452-3.213-0.719-3.417-2.176C18.393 129.9 23 131 26.7 131.755z M15.226 130.5 c0.691 1.2 3 1.5 5 1.865c2.881 0.6 6.9 1.7 9.9 1.242c-0.845-1.074-2.449-0.688-3.729-0.932 C23.305 132.1 19 131.1 15.2 130.512z"/><path d="M23.616 136.727c1.301 0.3 2.8 0.3 4 0.621c1.217 0.3 2.6 0.3 3.4 1.2 c-0.633 1.64-2.161 0.814-3.729 0.622c-1.557-0.191-3.43-0.594-4.972-0.933c-1.339-0.294-3.297-0.485-4.661-0.933 c-1.431-0.469-3.405-0.816-2.796-2.485C18.268 135.2 20.7 136.1 23.6 136.727z M15.538 135.8 c0.656 1.2 2.2 0.9 3.4 1.242c3.195 0.8 7.8 2.3 11.5 1.864C25.667 137.7 20.7 136.7 15.5 135.795z"/><path d="M27.344 140.146c1.098 0.3 3.222-0.186 3.4 1.553c-1.621 1.037-4.394 0.198-6.837-0.31 c-1.041-0.218-2.323-0.695-3.418-0.933c-2.373-0.518-5.605-0.583-5.593-2.798C19.172 138.1 23.6 139.2 27.3 140.146z M30.141 141.699c-4.162-1.638-9.682-1.92-13.982-3.418c-0.795-0.015-0.38 0.23-0.311 0.621c2.217 0.5 4.7 1.3 7.1 1.9 C25.364 141.3 27.9 141.8 30.1 141.699z"/><path d="M16.159 140.146c3.465 1 7.8 2 11.2 2.796c1.307 0.3 3-0.04 3.7 1.242c-0.823 1.376-2.6 0.814-4.04 0.6 c-1.494-0.199-3.033-0.949-4.35-1.242c-1.4-0.311-2.899-0.502-4.352-0.932c-1.438-0.427-3.441-0.256-3.417-2.175 C15.334 140.4 15.5 140 16.2 140.146z M15.538 141.078c1.568 1.5 4 1.4 6.2 1.9 c2.808 0.6 5 1.7 8.7 1.553C25.747 143.1 20.7 142 15.5 141.078z"/><path d="M322.862 165.315c-0.338-1.365-1.075-2.795-1.553-4.35c-0.426-1.387-1.146-3.515-1.242-4.661 c-0.08-0.939-0.43-2.622 0.621-3.418C321.553 156.7 324.2 160.4 322.9 165.315z M320.688 154.1 c-0.904 3.4 1.5 6.1 1.9 9.322C323.29 160.2 321.4 157 320.7 154.129z"/><path d="M307.947 187.689c-0.552-0.828-0.227 1.821-0.311 2.485C308.188 191 307.9 188.4 307.9 187.689z"/><path d="M217.209 203.848c6.1 0.8 11.4 5.1 14.3 9.012c0.559 0.8 0.9 1.6 1.2 2.2 c2.214 3.8 3.6 9.6 2.2 14.916c-0.209 0.764-0.387 1.638-0.621 2.174c-0.247 0.563-0.846 0.923-1.241 1.6 c-0.369 0.586-0.557 1.429-0.936 1.865c-0.227 0.263-0.9 0.95-1.242 1.242c-0.26 0.225-0.632 0.102-0.932 0.3 c-0.809 0.565-0.857 1.06-1.864 1.555c-2.067 1.016-4.94 1.882-7.769 1.864c-4.441-0.029-7.176-1.407-10.255-3.107 c-1.362-0.751-2.541-1.442-3.417-2.176c-1.611-1.346-2.485-2.401-3.729-4.038c-1.573-2.065-2.296-3.423-3.107-5.594 c-0.251-0.674-0.796-1.283-0.933-1.864c-0.485-2.07-0.766-6.89 0-9.634c0.255-0.914 1.428-3.039 1.864-3.729 c0.669-1.057 1.604-2.297 2.487-3.107c0.307-0.283 0.862-0.335 1.242-0.621c0.139-0.104 0.176-0.497 0.311-0.622 c0.257-0.239 0.609-0.11 0.932-0.311c0.709-0.436 1.658-1.275 2.486-1.554c2.245-0.756 6.285-0.602 8.391-0.311 C216.792 203.9 217 203.8 217.2 203.848z M226.532 209.131c-1.234-0.953-3.234-2.476-5.283-3.419 c-3.279-1.513-9.96-2.126-13.982-0.312c-3.627 1.636-7.512 6.379-8.08 11.188c-0.235 2.006-0.143 4.7 0.3 6.5 c0.294 1.2 1.2 2.6 1.9 4.041c0.665 1.3 1.2 2.5 2.2 3.729c1.385 1.7 3.3 3.5 5.3 5 c1.221 0.9 3.7 2.1 5.6 2.796c3.984 1.4 10.7 1.1 13.983-0.933c0.222-0.135 0.341-0.45 0.622-0.622 c0.742-0.456 2.799-2.225 3.417-3.106c0.259-0.369 0.099-0.828 0.313-1.243c0.094-0.188 0.546-0.464 0.621-0.621 c0.744-1.617 1.494-4.387 1.552-6.525C235.111 218.6 231.4 212.9 226.5 209.131z"/><path d="M311.366 105.653c0.25 0.2 1.896-0.875 1.9 0.932c-0.145 2.56-0.576 7.265-0.621 9.3 c-0.016 0.8 0.3 0.6 0.6 1.553c0.309 0.8 0.6 2.3 1.9 1.865c-2.52-30.4-4.907-60.932-8.391-90.116 c-0.884-7.409-1.615-14.711-2.484-22.063c-0.284-2.379-1.174-4.746-0.621-7.146c4.859 38.8 8.9 78.5 11.8 119.3 c1.983 1.9 2.6 3.7 3.1 6.216c0.136 0.6 0.4 1.3 0.6 1.864c0.413 1.4 0.9 2.5 1.2 3.7 c0.518 2.1 0.8 4.3 1.2 6.215c0.126 0.6 0.5 1.2 0.6 1.865c0.302 1.4 0.3 2.9 0.6 4.3 c0.592 2.6 1.6 5.1 2.2 7.77c0.422 2.1 0.7 5 1.2 6.215c0.053 0.1 0.6 0.2 0.6 0.3 c0.349 0.8 0.5 1.7 0.6 2.485c0.416 1.9 0.7 4.2 0.6 6.215c-0.048 2.619-0.87 4.265-1.242 6.2 c-0.677 3.542-0.551 9.396-0.933 13.052c-0.187 1.784-0.808 3.623-0.622 4.349c0.307 1.2 1 1.2 1.9 2.2 c1.22 1.7 2.4 4.3 3.1 6.215c0.28 0.7 0.8 1.5 0.9 2.176c0.304 1.5 0.1 3.8 0.3 5.6 c0.215 1.9 0.8 3.7 0.6 5.281c-0.069 0.719-0.616 1.527-0.932 2.486c-0.289 0.885-0.329 1.955-0.621 2.8 c-1.066 3.064-2.404 5.55-3.729 7.769c-0.529 0.882-0.836 1.952-1.243 2.487c-2.446 3.197-4.759 6.197-7.769 8.4 c-0.697 0.506-1.677 1.242-2.176 1.553c-0.301 0.188-0.596 0.114-0.932 0.312c-2.117 1.245-4.26 2.502-6.527 3.4 c-7.568 3.053-15.914 5.023-26.412 4.661c-7.221-0.25-12.986-1.507-18.645-3.106c-2.249-0.637-4.584-1.572-6.215-2.176 c-1.507-0.559-1.873-0.676-2.486-1.243c-0.225-0.209-0.697-0.099-0.932-0.311c-0.992-0.896-1.465-2.51-2.797-3.107 c-0.812-2.814-2.342-4.908-3.418-7.457c-1.203 4.432-3.799 8.375-6.217 11.186c-0.666 0.775-1.297 1.517-1.862 1.9 c-0.662 0.406-0.837 0.934-1.243 1.244c-0.267 0.203-0.641 0.1-0.933 0.311c-0.435 0.311-0.825 0.974-1.243 1.2 c-0.281 0.181-0.693 0.173-0.933 0.311c-0.847 0.49-1.181 0.861-2.173 1.243c-9.715 3.734-21.168 0.706-27.969-3.728 c-1.865-1.219-3.851-2.882-5.283-4.041c-0.401-0.325-0.943-0.633-1.242-0.933c-0.43-0.43-0.75-1.243-1.244-1.865 c-0.471-0.594-1.174-0.973-1.552-1.553c-0.423-0.646-0.528-1.409-0.933-2.174c-0.319-0.602-0.977-1.299-1.244-1.865 c-1.426-3.026-2.515-6.605-2.797-9.633c-0.125-1.362 0.119-3.895 0-5.283c-2.207 1.107-4.162 2.467-6.214 3.7 c-0.627 0.32-1.138-0.38-1.865-0.313c-0.437 0.043-0.354 0.518-0.621 0.623c-0.282 0.111-0.935 0.017-1.243 0 c-1.959-0.113-4.238-1.262-6.525-1.865c-1.987-0.525-3.666-0.83-5.281-1.242c-0.651-0.167-0.979-0.469-1.557-0.623 c-2.305-0.616-4.835-0.936-7.146-1.553c-2.374-0.635-4.666-1.326-6.836-1.865c-18.99-4.714-38.1-9.678-56.555-14.605 c-2.185-0.582-4.816-1.324-6.838-1.863c-2.254-0.603-4.79-1.318-6.836-1.864c-1.231-0.329-2.271-0.628-3.418-0.933 c-3.373-0.9-8.173-1.98-10.875-3.107c-0.766-0.271-0.697-1.377-1.865-1.243c-1.936 7.96-8.336 12.94-17.091 12.4 c-4.436-0.259-9.886-2.528-12.119-4.351c-1.659-1.354-3.771-3.062-4.972-4.351c-0.22-0.236-0.098-0.671-0.311-0.933 c-0.357-0.433-0.938-0.531-1.243-0.932c-0.351-0.46-0.259-1.01-0.621-1.554c-0.254-0.379-0.743-0.64-0.933-0.933 c-2.813-4.334-4.209-10.297-4.66-16.469c-2.646 0.906-5.658 2.65-8.082 2.797c1.645 2.6 1 7.631-1.552 8.7 c-2.318 0.587-5.534-1.271-7.147-1.863c-0.455-0.168-1.115-0.128-1.555-0.312c-2.758-1.16-6.568-4.995-6.523-8.39 c0.035-2.71 2.441-5.183 3.728-6.526c0.521-0.545 1.549-0.873 1.555-1.864c-1.681-6.472-2.237-14.257-2.798-22.063 c-0.584-8.163-1.305-16.43-0.932-24.238c0.072-1.528 0.4-2.876 0.311-4.351c-0.059-0.971-0.491-1.539-0.621-2.485 c-0.133-0.958-0.145-2.427 0-3.418c0.17-1.17 0.995-2.266 1.242-3.418c0.238-1.104 0.194-2.55 0.311-3.729 c0.415-4.176 0.832-7.683 1.555-11.187C5.334 83.5 6.7 79.2 8.4 75.2c0.952-0.538-0.33-1.035-0.313-0.933 c-0.15-0.887-0.068-1.129 0.313-1.865c0.595-1.061 2.214-1.099 3.416-1.554c2.527-2.505 6.359-3.975 9.634-5.283 c0.624-0.25 1.15-0.341 1.864-0.621c0.485-0.19 1.053-0.758 1.555-0.932c1.264-0.439 2.678-0.539 4.039-0.934 c1.275-0.369 2.479-0.921 3.729-1.242c13.268-3.404 29.025-5.283 45.059-5.283c26.361 0 51.8 0.3 78.6 1.6 c15.746 0.7 31.1 2.5 46.3 3.729c22.05 1.8 41.4 4.5 62.5 7.769c8.756 1.4 21.3 3.2 28 6.8 c0.831 0.5 2.3 1.1 2.8 1.554c1.129 1.1 3.4 2.9 4.4 4.04c0.425 0.5 0.5 1.1 0.9 1.6 c1.677 1.8 4.8 3.3 4.7 5.594c-0.163 2.721-4.224 3.871-5.903 4.972c0.904 2.2 2.3 3.9 3.1 6.2 c1.3-0.263 1.2 0.8 1.9 1.243c0.311 0.952-0.111 2.2 0.3 3.418c0.285 0.8 1.4 2.6 1.9 2.2 c0.16-3.258-0.4-7.238 2.176-8.079c0.018 0.2 0 0.4 0.3 0.31C311.41 100.2 311.4 102.9 311.4 105.653z M307.947 100.681c0.368 0.9 0.268-1.136 1.243-0.622c2.042 1.8 0.6 6.7 0.3 9.322c-0.091 0.978-0.694 2.6 0.6 2.5 c-0.252-0.887 0.191-1.904 0.311-2.797c0.119-0.89-0.413-2.216 0.622-2.486c0.697-0.2 0.9 0.9 0.9 1.2 c0.332 1.633-0.25 4.4 0 6.215c0 0.5 0 1 0 1.553c0.24 0.6 0.332-0.187 0.311-0.622c0-1.035 0-2.071 0-3.107 c0.475-1.701 0.283-4.068 0.621-5.904c-0.951-0.226-0.914 0.535-1.863 0.311c-0.721-1.871 0.199-5.378-1.242-6.526 C308.711 99.6 308.2 100 307.9 100.681z M12.74 73.025c54.552 4.8 110.2 9.8 165.3 15.2 c23.938 2.4 48.4 4.6 73.3 6.836c12.148 1.1 25 1.1 37.289-0.621c2.691-0.386 5.5-1.084 8.079-1.865 c2.349-0.711 5.107-1.246 6.526-3.418c-0.045-1.82-1.729-2-2.796-2.797c-1.378-1.918-2.777-3.922-4.663-5.593 c-0.665-0.591-1.511-0.868-2.484-1.554c-4.88-3.435-13.979-4.873-21.442-6.215c-28.94-5.204-59.88-8.229-91.669-10.876 c-19.843-1.652-39.85-2.379-60.906-3.107c-13.297-0.46-26.746-0.311-40.707-0.311c-8.703 0-17.505 0.575-25.48 1.6 c-7.311 0.897-14.578 2.515-21.441 4.04c-1.797 0.398-4.259 1.489-6.215 2.175c-0.537 0.188-1.002 0.096-1.555 0.3 c-0.685 0.266-2.193 1.159-3.107 1.554c-0.566 0.245-1.072 0.088-1.553 0.311c-1.418 0.657-3.63 1.987-5.283 3.1 C13.612 72 12.2 72.5 12.7 73.025z M11.807 74.268c-0.206 0-0.413 0-0.621 0c-4.053 8.48-5.647 19.419-6.836 30.8 c2.314 1.4 5.9 1.5 9.3 1.863c0.712-11.2 1.396-22.426 3.729-32.006C15.368 74.9 13.5 74.7 11.8 74.268z M83.28 84.211c0.549 4.574-0.543 9.437-1.244 14.294c-0.836 5.797-0.594 11.951-1.863 17.1 c-0.186 0.466-1.564 1.297-0.934 1.554c2.074 0.1 3.5 0.8 5.6 0.932c-1.702-2.685-0.503-6.899 0-11.187 c0.646-5.503 1.063-9.901 1.865-16.158c0.348-2.715 0.99-5.612 2.174-6.526c-0.166 0.1 1.793-0.869 2.176-0.932 c1.155-0.19 2.7 0.4 4.4 0.622c8.646 1.1 17.5 1.9 26.4 3.107c3.001 0.4 5.6 0.7 6.2 3.1 c0.453 1.874-0.76 4.452-1.243 7.147c-0.46 2.568-0.624 5.195-0.933 7.458c-0.343 2.514-0.732 5.167-0.932 7.5 c-0.353 4.1 0.3 7.807-1.242 10.255c-0.43 0.68-1.517 0.949-1.244 1.553c3.726 0.3 7.1 1 10.6 1.6 c1.008-0.027 0.078-1.298 0-1.555c-0.213-0.695-0.564-1.354-0.621-2.174c-0.134-1.915 0.576-4.835 0.932-7.769 c0.576-4.768 1.172-10.155 1.863-15.228c0.566-4.147 0.666-8.704 3.729-9.943c2.106-0.853 5.215-0.026 8.1 0.3 c6.493 0.8 13.4 1 20.2 1.554c3.172 0.3 5.179-0.009 7.1 1.865c1.65-0.391 2.8 0.9 3.7 1.9 c1.244 1.3 0.3 4.909-0.313 8.39c-0.41 2.48-0.881 5.169-1.241 7.768c-0.898 6.45-1.195 12.688-1.555 16.8 c-0.101 1.168-0.857 2.654-1.864 3.729c-0.556-0.088-0.638 0.294-0.311 0.312c3.398 0.7 6.9 1.4 10.6 1.9 c1.033-9.512 2.371-18.614 3.729-28.899c0.402-3.048 0.436-7.548 1.865-9.011c0.245-0.252 0.635-0.088 0.932-0.312 c0.099-0.074 0.224-0.583 0.311-0.621c2.883-1.239 10.5 0.2 14.6 0.621c12.458 1.1 23.8 2.1 36.4 3.4 c2.469 0.3 4.8 0.8 6.8 0.933c4.888 0.4 10.062-0.24 13.7 0.311c0.935 0.1 1.9 0.1 3.4 1.6 c0.375-0.804-1.063-2.452-1.243-3.73c-41.483-2.854-82.276-7.24-123.055-11.187C99.995 82.4 59.2 79.1 18 75.2 c-2.933 9.083-3.004 21.027-4.039 32.006c11.98 1.6 23.5 3.7 35.4 5.282c-0.72-1.392-0.644-2.969-0.621-4.661 c0.05-3.832 1.046-8.365 1.554-12.741c0.543-4.673 1.011-9.277 1.553-12.43c0.139-0.804 1.074-1.581 1.865-2.175 c7.38 0.4 15.7 1.5 23 2.175C79.145 82.9 81.7 82.4 83.3 84.211z M174.637 92.9 c0.438 0.6 0.8 1.2 0.9 2.175c-0.19 7.951-1.813 16.449-2.797 24.55c-0.364 3.007-0.183 5.977-0.933 8.4 c-0.069 0.229-0.14 0.895-0.311 1.243c-0.067 0.14-0.569 0.196-0.621 0.311c-0.071 0.2 0.1 0.5 0 0.6 c-0.269 0.398-1.39 0.561-0.932 1.243c1.555 0.2 4.179-1.229 4.35-2.485c0.578-4.273 0.572-9.762 1.243-15.227 c0.286-2.342 0.866-4.842 1.243-7.148c0.613-3.741 1.438-6.813 1.244-11.498C177.223 94.1 176.4 93 174.6 92.912z M133.62 124.919c2.506 1.6 5.5 1.9 8.4 2.486c6.439 1.2 11.3 2.2 18.3 3.418c2.251 0.4 5 1 7.5 0.3 c0.629-0.171 1.446-0.281 1.867-0.621c1.584-1.284 1.744-5.478 2.174-9.012c0.953-7.817 1.369-11.593 2.486-19.887 c0.425-3.153 1.322-7.379-0.933-9.012c-1.324-0.96-5.298-0.986-8.39-1.243c-7.639-0.637-14.182-0.956-22.063-1.864 c-0.357-0.042-0.911 0.131-1.242 0c-0.267-0.105-0.186-0.582-0.623-0.622c-1.276-0.119-3.164 1.025-3.729 1.9 c-1.168 1.734-1.49 5.108-1.865 8.079c-0.768 6.092-1.487 11.598-2.174 17.402C132.953 119.2 132.6 122.2 133.6 124.919z M122.744 87.63c1.107 0.9 3.6 0.3 4 1.864c-0.737-0.009-1.122-0.715-1.864-0.933c-0.781-0.228-2.037-0.184-3.106-0.311 c-2.583-0.305-6.265-0.913-8.701-0.621c0.081 0.9 1.6 0.8 2.5 0.932c1.861 0.3 4 0.3 6.2 0.6 c2.108 0.3 3.5 0.3 4.7 1.554c0.102 4.762-0.741 8.581-1.242 12.74c-0.041 0.409-0.047 2.2 0.3 1.2 c0-0.622 0-1.243 0-1.864c0.277-3.465 2.061-7.979 1.865-11.498c-0.061-1.095-0.751-1.851-0.622-2.797 C125.575 88.1 124.7 87.4 122.7 87.63z M107.516 99.438c0.406 1.1 0 1.2 0.6 2.2 c0.457 0.7 1.1 2.5 1.6 3.729c0.767 2 1.7 4.1 1.9 6.525c0.407 1.339-0.882 0.982-1.243 1.6 c0.488 2 0.5 4.5 0.9 6.526c3.472 0.5 6.5 1.3 10.6 1.243c1.724-1.776 1.56-4.563 1.864-7.146 c0.289-2.481 0.633-5.205 0.932-7.769c0.627-5.381 1.656-10.887 1.242-15.848c-3.704-1.165-8.664-1.071-12.739-1.865 C112.158 93.1 111.2 97.6 107.5 99.438z M124.918 108.139c-0.516 2.021-0.643 4.319-0.932 6.8 c-0.26 2.254-0.096 5.126-1.555 6.215c0.066-0.05-1.239 0.621-1.242 0.622c-1.052 0.189-2.695-0.368-4.35-0.622 c-8.602-1.319-21.897-3.019-29.832-4.35c-1.449-1.988-0.436-6.539 0-9.633c0.654-4.669 1.158-9.051 1.863-14.294 c0.348-2.584 0.571-5.769 1.555-6.526c0.82-0.63 3.711-0.471 5.283-0.311c2.193 0.2 4 0.4 5.9 0.6 c4.122 0.5 8 1.4 11.2 1.243c-0.067-1.242-1.448-0.808-2.177-0.933c-3.738-0.635-8.428-1.007-12.74-1.553 c-2.927-0.372-5.639-1.119-8.391 0c0.409-1.25 2.432-0.885 4.041-0.932c-0.719-0.698-2.926-0.25-3.73 0 c-0.432 0.863-0.959 1.773-1.242 2.796c-0.336 1.218-0.411 2.614-0.621 4.04c-0.879 5.967-1.997 13.238-2.797 19.9 c-0.32 2.67-0.471 4.5 0.6 6.214c1.195 0.9 2.8 0.7 4.3 0.932c7.835 1.4 17.8 2.8 26.7 4 c3 0.4 4.8 1.1 6.836-0.621C124.575 117.7 124.5 112.7 124.9 108.139z M86.076 118.1 c0.056-0.264-0.122-0.293-0.312-0.311c-1.184-1.336 0.2 0.4 0.6 0.932c8.569 1.5 19.4 2.9 28.6 4.4 c2.031 0.3 3.8 0.7 6.5 0.622c0.616-0.282 0.616-1.043 0-0.311c-6.251-0.484-12.753-1.548-18.955-2.486 C96.881 120 91.5 119.3 86.1 118.082z M104.099 101.613c-0.534 1.53-1.116 3.017-1.554 4.7 c-0.454 1.702-0.523 3.536-0.933 5.283c-0.53 2.256-1.84 4.357-1.555 6.835c3.541 0.5 7.2 0.9 10.6 1.6 c0.104-2.487-0.555-4.21-0.621-6.526c-0.299-1.127 1.397-0.26 1.243-1.243c0.018-1.9-1.043-3.979-1.864-6.214 c-0.332-0.901-0.521-2.134-0.934-3.108c-0.611-1.453-2.199-2.49-0.932-3.728c0.404-0.394 1.104-0.685 1.865-1.245 c-0.08-0.933 0.865-1.141 1.242-1.864c1.107-2.121 1.193-4.816 2.177-7.147c-5.087-1.231-11.132-1.506-16.782-2.175 C98.334 92 100.3 97.8 104.1 101.613z M95.398 86.697c-1.224-0.575-4.12-0.486-4.972 0.3 c-0.951 2.205-0.9 4.68-1.244 7.147c-0.334 2.394-0.604 4.946-0.932 7.458c-0.62 4.759-1.969 9.77-1.242 14.6 c3.461 1.3 8.5 1.1 12.1 2.174c0.988-1.01 0.615-2.451 0.933-3.729c0.282-1.135 0.674-2.275 0.933-3.417 c0.254-1.111 0.352-2.29 0.622-3.418c0.249-1.041 0.944-2.046 1.243-3.108c0.313-1.122 0.444-2.34 0.622-3.417 C99.514 97.7 98.1 91.6 95.4 86.697z M50.34 112.799c7.121 1.4 14.6 2.4 22.1 3.419c0.354-0.06 0.172-0.312 0-0.311 c-0.311 0-0.621 0-0.932 0c-4.481-0.785-10.313-1.711-15.227-2.486c-2.855-0.45-6.186-0.422-6.837-3.107 c-0.134-0.546 0.146-2.709 0.311-4.04c0.39-3.154 1.145-7.381 1.554-10.876c0.621-5.315 0.492-10.433 2.796-13.984 c9.663 0.5 18.9 1.4 28 2.486c-2.186 0.155-4.523-0.103-6.837-0.311c-6.527-0.584-13.876-1.437-20.82-1.864 c-1.525 1.754-1.525 4.149-1.862 6.525c-0.99 6.97-2.088 15.036-2.486 22.685c1.314 1.6 3.7 1.8 5.9 2.2 c2.23 0.4 4.5 0.6 6.8 0.933c2.248 0.4 4.6 0.6 6.8 0.931c2.324 0.4 4.5 1.2 6.5 1.2 c0.604 0 1.6 0.1 2.2 0c0.322-0.068 0.666-0.881 0.932-0.311c-0.277 0.138-0.557 0.273-0.621 0.6 c-0.554-0.088-0.638 0.293-0.311 0.311c0.252-0.06 0.311-0.312 0.621-0.311c0.513-0.38 0.353-1.122 0.621-1.865 c0.196-0.542 0.801-1.219 0.932-1.865c0.305-1.473 0.171-3.527 0.311-5.282c0.148-1.829 0.424-3.595 0.312-5.282 c-1.081 3.889-0.624 9.32-2.175 12.74c-4.709 0.565-9.527-0.794-14.295-1.554c-2.396-0.381-4.799-0.849-7.146-1.243 c-2.246-0.377-4.727-0.173-6.525-1.554c-0.416-4.491 0.623-9.296 1.242-13.983c0.629-4.761 0.734-9.584 2.175-13.673 c4.491-0.145 9.7 0.4 14.6 0.933c2.411 0.3 4.9 0.7 7.1 0.933c2.333 0.2 4.757-0.167 6.5 1.2 c0.049 2.43-0.252 4.512-0.621 6.526c0 0.4 0 0.8 0 1.243c0.059 0.4 0.3 0.2 0.3 0 c-0.265-2.703 1.369-5.803 0.934-8.08c-0.084-0.431-0.736-0.86-0.934-1.243c-0.216-0.425-0.029-0.429-0.311-0.933 c-5.727-0.732-13.972-1.562-20.818-2.175c-3.31-0.296-6.736-1.085-8.391 0.311c-0.264-0.057-0.293 0.121-0.311 0.3 c-1.086 4.152-1.566 11.559-2.176 16.779c-0.285 2.439-0.699 5.011-0.933 7.458C49.186 108.6 48.5 111.1 50.3 112.799z M38.221 76.132c-0.431-0.708-2.162-0.116-3.106-0.311C35.544 76.5 37.3 75.9 38.2 76.132z M38.532 76.1 c1.493 0.7 4.9 0.1 1.6 0C39.568 76.1 39 76.1 38.5 76.132z M41.95 76.443c1.492 0.7 4.9 0.1 1.6 0 C42.987 76.4 42.5 76.5 42 76.443z M45.37 76.753c1.492 0.7 4.9 0.1 1.6 0 C46.404 76.7 45.9 76.8 45.4 76.753z M51.893 77.375c-0.432-0.708-2.163-0.115-3.106-0.311 C49.217 77.8 51 77.2 51.9 77.375z M55.313 77.686c-0.432-0.708-2.163-0.116-3.109-0.311 C52.635 78.1 54.4 77.5 55.3 77.686z M55.624 77.686c1.492 0.7 4.9 0.1 1.6 0 C56.659 77.7 56.1 77.7 55.6 77.686z M62.147 78.307c-0.431-0.708-2.162-0.115-3.106-0.311 C59.473 78.7 61.2 78.1 62.1 78.307z M65.567 78.619c-0.432-0.709-2.162-0.116-3.109-0.312 C62.89 79 64.6 78.4 65.6 78.619z M68.985 78.929c-0.43-0.709-2.164-0.116-3.107-0.311 C66.307 79.3 68 78.7 69 78.929z M69.295 78.929c1.494 0.7 4.9 0.1 1.6 0 C70.333 78.9 69.8 78.9 69.3 78.929z M72.713 79.24c12.805 1.4 28 2.8 42 4 c0.956 0.1 3.3 0.7 4.7 0.311c0.586-0.185-0.199-0.375-0.622-0.311C103.305 82 88.3 80.3 72.7 79.24z M64.633 96.331c0.029 1.4 1.5 1.4 1.9 2.485c0.176 1.7 0.5 3.2 0.9 4.661c4.415-1.178 8.806-2.381 13.36-3.418 c0.496-4.581 1.213-8.939 1.555-13.673c-2.653-1.489-7.074-1.212-10.875-1.553c-0.813 1.595-1.301 3.171-2.176 5 c-0.087 0.177-0.158 0.729-0.311 0.932c-0.229 0.306-1.136 1.26-1.554 1.865c-0.208 0.301-0.077 0.68-0.311 0.9 C66.513 94.2 65 95 64.6 96.331z M58.109 111.868c3.644 0.8 7.6 1.3 11.5 1.9 c0.073-2.792-1.196-4.842-1.864-7.148c-0.653-2.254-1.272-4.645-1.554-7.457c-0.428-0.92-1.534-1.161-1.865-2.176 c-0.197-2.25 2.111-2.994 3.108-4.351c0.378-0.516 0.616-1.583 0.933-2.175c0.875-1.643 2.114-3.528 2.484-5.904 c-5.691 0.087-11.008-1.82-16.47-0.933c-0.005 1.9 1.2 3 2.2 4.972c1.072 2.1 1.7 3.7 3.1 5.6 c0.916 1.2 1.8 2.6 1.2 5.283c-0.246 1.219-1.369 1.698-1.864 2.797c-0.489 1.086-0.7 2.958-0.932 4.7 C57.891 108.5 57.4 110.1 58.1 111.868z M58.419 93.224c-1.685 0.594-3.821 0.736-5.593 1.2 c-0.52 4.349-1.137 8.6-1.555 13.051c2.232-0.563 4.248-1.346 6.526-1.864c0.138-1.002 0.595-1.683 0.621-2.797 c0.384-1.17 1.196-1.91 1.864-2.797c0.262-1.188 0.406-2.495 0.311-4.04C59.975 95 59.2 94.1 58.4 93.224z M54.378 84.833c-1.069 2.244-0.694 5.934-1.552 8.391c1.477 0.7 3.631-0.505 5.282-0.622 C56.74 90.1 55.2 87.8 54.4 84.833z M224.045 93.534c-0.431-0.709-2.162-0.116-3.107-0.311 C221.369 93.9 223.1 93.3 224 93.534z M224.668 93.534c-0.568 0.2 0.2 0.3 0.6 0.3 c5.494 0.3 10.5 1.1 16.2 1.242C236.112 94.3 230.4 93.9 224.7 93.534z M306.393 135.8 c0.207 1.4 1.9 0.2 2.5 0c2.313-0.751 5.119-2.305 7.457-3.107c-0.645-2.772-2.222-5.178-3.418-7.769 c-0.358-0.777-0.576-1.762-0.932-2.486c-0.792-1.613-1.975-3.061-2.797-4.662c-0.836-1.626-1.342-3.4-2.176-4.972 c-0.86-1.623-1.977-3.031-2.795-4.66c-1.983-3.944-3.682-8.135-5.905-12.12c-0.32-0.574-0.5-1.86-1.555-1.864 c2.077 4.2 4.4 9 6.8 13.673c0.701 1.4 1.7 2.6 2.5 4.04c1.356 2.6 2.4 5.4 4 8.1 c0.786 1.3 1.9 3.5 2.8 5.594c0.783 1.8 1.7 3.9 1.6 4.971C313.993 134.2 309 133.7 306.4 135.795z M311.987 121.19c-0.446 0.6 0.9 2 0.9 3.107c0.857 0.1 0.292-1.158 0.932-1.243 C313.234 122.4 312.4 122 312 121.19z M316.958 132.377c-0.234 1.025-1.341 0.85-2.174 1.2 c-1.898 0.893-4.596 1.961-6.837 3.107c-1.452 0 0.4 0.7 0.3 1.242c-0.576 0.242-1.428 0.996-2.175 1.2 c-0.683 0.226-1.909-0.637-1.862 0.621c-1.136 0.164-1.396-1.365-2.176-0.621c-5.571 2.095-10.236 5.094-16.471 6.5 c0.141 3.113-0.141 5.6 0.3 8.078c0.18 1 0.8 1.8 0.9 2.797c0.166 1.319-0.119 2.8 0 4.4 c4.746 1.9 10.1 3.9 14.9 6.525c0.133 0.1 0.2 0.6 0.3 0.621c0.867 0.4 2 0.9 3.1 1.6 c0.86 0.5 1.6 1 2.5 1.556c0.239 0.1 0.7 0.1 0.9 0.31c0.267 0.2 0.4 0.8 0.6 0.9 c0.299 0.2 0.7 0.1 0.9 0.311c1.018 0.8 1.7 1.6 2.8 2.485c0.94 0.8 1.9 1.1 2.8 2.2 c0.215 0.3 0.1 0.7 0.3 0.933c0.352 0.4 1.1 0.8 1.6 1.553c0.163 0.2 0.1 0.7 0.3 0.9 c0.096 0.1 0.6 0.2 0.6 0.311c3.167 5.6 2.6 15.3 2.2 24.237c0.982-0.913 1.035-2.776 1.242-4.66 c0.197-1.791 0.101-3.758 0.311-5.594c0.682-5.955 2.078-12.243 2.176-19.266c0.266-1.277-1.391 0.368-1.865-0.622 c-2.211-4.04-3.428-10.934-3.728-17.401c-0.22-4.712 0.214-10.487 2.175-13.363c-1.594-5.554-2.168-12.125-4.352-17.09 c-0.264-0.057-0.293 0.121-0.311 0.311C314.484 129 316.4 130.9 317 132.377z M314.161 125.9 c-0.558 0.6 1 1.7 0.9 2.796c0.613-0.216 0.828-0.829 0.932-1.554C314.855 127.2 314.6 126.4 314.2 125.852z M305.149 132.999c-1.438 0.108-0.165 2.004-0.311 2.797c0.041 0.557-0.381 0.655-0.311 1.242c0.15 0.979-1.424 0.233-1.553 0.9 c0 0.3 0 0.6 0 0.933c0.317 0.8 0.729-0.167 1.553-0.311c1.357-0.235 2.6 0.1 3.108-1.243 C305.155 137.6 306.3 134.2 305.1 132.999z M312.608 130.202c-0.287-3.961-2.602-5.892-3.729-9.012 c-1.979 1.751-3.861 3.596-5.904 5.283c1.004 2.3 1.2 5.4 2.8 7.146C308.159 132.6 310.9 131.9 312.6 130.202z M306.082 134.552c0.07 1.4 1.4 0.2 1.9 0c1.622-0.577 4.292-1.576 5.593-2.797c0.933-3.827-1.605-7.218-3.106-10.255 c-1.556-3.144-3.118-6.32-4.662-9.322c-0.415-0.807-0.811-1.695-1.243-2.486c-0.217-0.4-0.707-0.497-0.93-0.932 c-1.959-3.809-3.916-8.488-6.217-12.43c-0.378-0.647-0.736-1.67-1.555-1.864c-1.148 0.043-0.012 0.9 0 0.9 c0.58 1.2 1.4 2.8 2.2 4.35c1.386 2.6 3 5.3 4.7 8.391c0.372 0.7 0.6 1.5 0.9 2.2 c1.742 3.2 3.3 6.3 5.6 10.565c1.325 2.5 4.2 7.1 3.7 9.011c-0.469 2.01-3.451 2.481-5.282 3.4 C307.075 133.6 306 133.8 306.1 134.552z M306.393 116.218c-2.486 0.104-4.21-0.555-6.525-0.622 c0.125 1.4 0.7 2.4 0.9 3.729c2.196 0.1 4.1 0.5 5.9 0.933c-1.357 0.521-3.794-0.548-5.593-0.621 c0.198 2.3 1.3 3.7 1.6 5.904c2.25-1.064 3.289-3.34 5.282-4.662c0.06-0.252 0.312-0.31 0.31-0.622 C307.913 118.6 306.7 117.9 306.4 116.218z M294.895 94.776c-0.154 0.9 0.6 1.7 0.9 2.5 c2.68 5.4 6.1 11.5 8.7 17.401c-0.715 1.231-3.548 0.043-4.971 0c-0.266 1 1 0.5 1.6 0.6 c1.198 0.2 3.4 0.4 5 0.622C302.448 108.8 298.9 101.6 294.9 94.776z M254.188 100.7 c1.596 0.5 2.3 1.3 3.7 1.554c3.229 0.6 4.85-0.569 6.8 1.864c0.288 0.4 0.6 1.4 0.9 2.2 c0.317 0.7 0.6 1.5 0.9 2.175c0.414 0.9 0.7 3.5 2.8 3.108c-0.188-1.564-1.344-3.092-2.176-4.973 c-0.179-0.405-0.109-1.121-0.311-1.553c-0.588-1.269-2.18-3.816-3.729-4.351c-0.787-0.271-2.598-0.248-3.729-0.311 c-1.891-0.105-3.936-0.133-5.904 0.311c0.547 1.2 2 1.9 3.1 2.796c1.015 0.8 2 1.8 3.1 2.5 c-0.132 0.6 0.2 0.8 0.3 1.243c0.91-0.938-2.243-3.032-0.312-4.04C257.489 102.8 255.3 102.3 254.2 100.681z M260.405 102.856c0.252 0.8 1.6 0.4 2.2 0.932c2.287 1.5 2.5 5.2 4 7.459c1.079-0.045 0.225-1.55 0-2.176 c-0.102-0.287-0.479-0.572-0.621-0.932c-0.612-1.562-1.633-3.958-2.797-4.973C262.424 102.9 261.5 102.8 260.4 102.856z M247.974 103.788c0.308 0.7 0.5 1.5 0.6 2.487c3.569 0.4 7.5 0.4 10.9 0.932c0.145-0.768-0.484-1.415-0.934-1.864 c-0.246-0.25-0.635-0.088-0.932-0.311c-0.32-0.241-0.891-1.075-1.553-1.244c-0.865-0.22-1.545 0.3-2.486 0.3 C251.629 104.1 249.9 103.4 248 103.788z M247.663 104.099c0.029-1.1 2.145-0.59 3.418-0.622 c1.426-0.034 2.9 0 4 0c1.365-0.236-1.24-1.296-1.554-1.864c-0.404-0.195-0.472-0.214-0.934-0.622 c-0.104-0.092 0.102-0.521 0-0.621c-0.016-0.018-0.914 0.546-0.621-0.311c-6.492 0.061-12.193-0.916-18.643-1.554 c-9.141-0.903-18.387-1.52-27.969-2.486c-1.921-0.194-4.479-0.393-6.836-0.621c-2.553-0.247-5.047-1.021-6.836-0.622 c-3.101 0.692-2.899 2.794-3.42 6.526c-1.455 10.486-3.027 21.962-4.349 32.317c19.127 2.8 37.6 5.5 56.9 8.4 c6.17 0.9 12.6 2.2 19 2.485c3.521 0.2 6.9 0.3 10.3 0.311c0.58 0 2.3 0.5 2.486-0.621 c0.189-1.482-2.363-1.162-3.418-1.242c-3.877-0.297-8.274 0.049-12.119-0.621c-0.883-0.906-0.061-1.647-0.311-2.486 c-1.895-6.316-3.762-14.02-5.594-20.82c-0.298-1.105-0.753-2.435-1.244-3.729c-0.371-0.983 0.08-3.59-2.174-2.797 c-0.886 0.022-0.365 1.301-0.311 1.555c0.145 0.7 0.5 1.3 0.6 1.864c0.165 0.6 0.4 1.2 0.6 1.9 c1.982 7.4 4.3 16.2 6.5 23.618c-0.485 1.118-2.423-0.285-3.108 0c-0.029 0.012-0.344 0.617-0.311 0.6 c-0.559-0.046-1.139-0.786-1.865-0.932c-0.68-0.136-0.803 0.329-1.242 0.312c-0.01 0-0.639-0.268-0.932-0.312 c-1.514-0.229-3.119-0.71-4.66-0.932c-9.139-1.322-19.566-2.46-28.9-3.729c1.18-12.597 2.859-24.694 4.351-36.979 c8.515 0.8 17.1 1.6 25.5 2.485c1.105 1.6 1.3 4.1 1.9 6.216c0.313 0.5 1.3 0.3 1.9 0.6 c1.143-0.054-0.078-1.886-0.311-2.796c-0.302-1.17-0.42-2.649-0.933-3.418c1.8-0.479 4.004-0.555 6.214-0.622 c-0.777 1.294-3.824 0.319-5.592 0.622c0.336 2.3 1.1 4 1.6 6.215C249.203 107.5 247.8 105.6 247.7 104.099z M298.935 112.799c-0.06-1.246-0.44-2.167-1.554-1.553c-0.573-4.088-1.535-7.789-2.486-11.498 c-0.215 2.3 0.7 5.1 1.2 7.769c0.284 1.3 0.6 2.7 0.9 4.041c0.259 1.128-0.134 3 1.2 3.4 C298.209 114.4 297.3 112.4 298.9 112.799z M299.246 113.421c-0.249 1.2 1.5 0.4 2.2 0.6 c0.134 0.7 1.5 0.1 2.2 0.31c-3.055-6.58-6.592-12.677-9.635-19.267c-2.775 0.229-5.1 0.908-7.77 1.2 c1.865 5.6 4.4 10.6 6.2 16.158c0.549 0.6 1.5 0.7 2.2 1.244c-3.092 0.771-3.446-3.023-4.35-5.283 c-0.182-0.456-0.46-0.797-0.621-1.243c-0.111-0.304-0.135-0.802-0.311-1.243c-0.303-0.753-0.943-1.43-1.245-2.176 c-0.233-0.582-0.116-1.054-0.311-1.553c-0.575-1.485-1.897-4.06-2.485-5.904c-1.742 0.432-3.73 0.619-5.904 0.6 c0.184 1.462-0.17 3.054-0.312 4.661c-0.286 3.3 0.1 6.619-2.175 8.079c-1.686 0.237-2.408-0.492-4.039-0.311 c0.488 0.9 0.9 1.8 1.2 2.797c3.013 0.3 5.8 0.8 9 0.933c0.596-4.583 0.669-9.69 1.554-13.983 c0.757-0.045 1.1 1.1 1.2 1.553c0.27 0.7 0.4 1.3 0.6 1.865c0.444 1.2 0.8 2.6 1.2 3.7 c0.895 2.5 2 5.1 2.5 7.769c2.219 0.1 3.9 0.7 6.2 0.621c-0.43-3.822-1.507-7.67-2.175-11.808 c-0.179-1.104-1.277-2.617 0-3.418c1.293-0.408 1.3 1.2 1.6 1.865c0.664 2.1 1.1 5.5 1.6 8.1 c0.424 1 1.6 1.3 1.9 2.486C299.65 112.6 298.3 113.2 299.2 113.421z M241.757 95.1 c1.495 0.7 4.9 0.1 1.6 0C242.794 95.1 242.3 95.1 241.8 95.087z M269.725 98.8 c0.842-0.917 2.59-0.933 4.04-1.243c-2.448-0.681-5.806 0.407-9.012 0c1.696 4.9 3.7 9.6 5.9 14.3 c1.25-0.214 1.8 0.3 2.8 0.311c-0.751-2.648-2.251-5.669-3.418-8.391C269.634 102.9 268.4 100.1 269.7 98.816z M272.522 108.76c1.514-0.143 3.6 0.3 4.662-0.311c1.213-3.135 1.023-7.677 1.552-11.498c-3.266 0.463-6.421 1.035-9.011 2.2 C269.311 103.7 271.7 105.5 272.5 108.76z M218.453 109.071c0.621 1.3 2.9 1 4 1.9 c2.579-1.356 5.497-2.374 8.077-3.729c-0.269-2.499 1.03-4.553 0.932-5.904c-1.487-0.479-3.357-0.578-5.281-0.622 c-0.66-0.265-0.414 0.439-0.621 0.622c-0.512 0.446-1.472 0.939-2.176 1.553c-0.805 0.702-1.791 1.374-2.486 2.2 c-0.234 0.271-0.332 0.9-0.621 1.243C219.725 107 218.7 107.6 218.5 109.071z M224.979 100.4 c-2.064-0.11-4.211-0.14-5.905-0.622c-1.037 4.245-1.429 9.137-1.864 13.984c1.729-0.759 2.997-1.977 4.974-2.486 c-1.229-0.74-3.348-0.591-4.041-1.865c0.349-2.58 2.339-4.26 4.041-5.904c0.528-0.513 0.993-1.056 1.552-1.554 C224.187 101.5 225.3 101.3 225 100.37z M309.19 100.37c-0.766 0.441-1.078 1.876-1.243 3.7 c-0.122 1.407-0.396 3.878-0.311 4.351c0.157 0.9 0.8 2 1.6 2.174C309.122 107.3 310.7 103.2 309.2 100.37z M80.792 101.303c0.059-0.265-0.119-0.293-0.311-0.312c-4.451 0.831-8.378 2.187-12.739 3.107c0.203 3.9 2.3 6 2.5 9.9 c3.029-0.133 5.6 1.5 8.4 0.621C80.073 110.9 79.7 105.4 80.8 101.303z M285.262 101.3 c-0.844 3.3-0.937 7.35-1.242 11.186c1.549 0.4 3.3 0.6 5.3 0.622C288.152 109 286.4 105.5 285.3 101.303z M232.435 101.303c0.087 1.054-0.241 2.5 0.3 3.107c0.951-0.302 3.461-0.665 4.3 0c0.706-0.331 0.119-1.953 0.311-2.796 C235.497 101.8 234.4 101.1 232.4 101.303z M231.502 106.895c2.514-0.324 5.142-1.786 7.148-0.621 c1.018 0.6 1.2 1.5 1.9 2.796c0.215 0.6 0.482-0.335 0-0.311C241.078 104 232.6 102.8 231.5 106.895z M240.825 107.828c0.721-1.249 0.107-3.829 0.311-5.593c-0.697-0.546-2.335-0.149-3.105-0.622c0 0.9 0 1.9 0 2.8 C239.475 105 240.4 106.1 240.8 107.828z M241.757 101.923c-0.831 1.567-0.026 4.2 0 5.9 c1.098 0.4 2.6 0.3 3.7 0.622c-0.222-2.368-2.15-3.029-1.554-6.215C243.29 102 241.9 102.6 241.8 101.923z M259.471 103.788c0.144 1.4 1.3 1.8 1.2 3.419c1.563-0.216 2.2 0.5 3.7 0.3 C264.069 105.2 261.9 103 259.5 103.788z M3.728 105.964c-0.731 1.66-0.299 4.6 0.6 5.6 c2.548 0.7 5.7 0.7 8.1 1.553c0.636-1.572-0.384-3.913 0.932-5.283c-2.23-1.396-6.605-0.645-8.7-2.175 C4.158 105.6 4.1 105.9 3.7 105.964z M222.183 134.241c0.794 0 1.5 0.2 1.9 0.6 c0.566 0.01-0.592-1.563 0.623-1.554c0.151-1.28-1.072 0.299-0.313-0.932c1.09 0.2 0.4 1.1 0 1.6 c0.053 0.9 0.6 1.3 0.6 2.176c0.057 0.678-0.255 0.988-0.934 0.932c0.926 0.7 3.1 0.2 4 0.9 c0.364-0.049 0.262-0.566 0.311-0.932c0.364 0.1 0.3 0.6 0.3 0.932c6.342 0.7 12.5 1.6 18.6 2.5 c0.953-11.14-2.972-20.427-6.527-28.899c-0.244-0.588-1.047-1.532-1.24-2.176c-0.372-1.227-0.801-2.744-2.487-2.796 c-5.459 2.827-11.097 5.477-16.78 8.079c-2.756 5.2 1.9 12.3 2.5 17.402C223.202 133.4 221.3 133.3 222.2 134.241z M216.899 117.46c-1.273 5.772-1.602 12.485-2.486 18.646c2.086-0.015 3.8 0.4 5.6 0.621c1.385 0.045-0.275-0.797 0-1.554 c0.18-0.958 1.123-1.155 1.865-1.554c0.164-0.25 0.322-0.504 0.312-0.932C220.821 127.2 219.4 121.8 216.9 117.46z M216.899 114.975c-0.107 2.4 1.6 3 1.9 4.973c0.683-1.578 0.04-3.068 0.622-4.351c0.621-1.368 2.105-1.632 3.729-2.485 c3.594-1.89 9.146-4.507 12.43-6.216c0.555 0.1 0.639-0.293 0.311-0.31c-0.252 0.059-0.311 0.312-0.622 0.3 c-1.929 0.222-3.53 0.868-5.282 1.555c-2.766 1.085-5.266 2.407-7.767 3.729C220.62 113 218.3 113.5 216.9 114.975z M57.798 106.895c-1.99-0.536-4.554 1.036-6.526 1.555c-0.618 3.8 3.9 2.5 6.2 3.4 C57.69 110.3 57.1 107.9 57.8 106.895z M248.905 107.207c0.629 0.6 0 1.2 0.3 1.6 c0.418 0.5 3.5 0.8 4.7 0.932c2.268 0.3 4.9 0.2 6.5 0.932c0.783-0.704-0.412-2.057-0.622-2.796 C254.911 107.8 254 107.3 248.9 107.207z M311.055 107.517c-0.385 2.495-1.621 5.7 0.3 7.1 C311.821 113 312.1 108.8 311.1 107.517z M14.294 107.517c-1.452 0.317-1.562 3.609-0.934 5 c0.171 1 1.6 0.8 2.2 0.932c2.614 0.5 5.3 0.8 8.1 1.243c23.939 3.7 48.8 8.3 73.3 12.1 c28.117 4.4 56.1 9.3 83.9 13.983c0.268-1.878 0.488-4.158 1.241-5.904c0.167-0.385 0.505-0.917 0.311-1.243 c-4.015-0.291-7.553-1.814-11.497-1.864c-1.806-0.022-3.455 0.617-5.282 0.622c-1.722 0.004-3.725-0.615-5.595-0.933 c-5.385-0.917-10.938-2.069-16.469-3.107c-1.866-0.351-3.789-0.524-5.593-0.933c-1.761-0.397-3.248-1.15-4.972-1.553 c-2.663-0.624-5.534-0.758-8.701-1.243c-0.795-0.123-1.794-0.565-2.485-0.622c-0.78-0.065-1.472 0.311-2.177 0.3 c-4.439 0-9.845-1.523-14.604-2.174c-4.285-0.586-8.479-0.95-12.74-1.554c-1.322-0.188-2.825-0.329-4.041-0.621 c-1.439-0.347-2.623-1.172-4.039-1.555c-0.738-0.198-1.689-0.164-2.486-0.311c-0.707-0.129-1.294-0.538-1.865-0.622 c-1.558-0.228-3.127-0.119-4.661-0.311c-5.952-0.743-12.325-1.827-18.644-2.796c-1.568-0.24-3.127-0.313-4.662-0.621 c-0.189-0.04-0.904-0.168-1.242-0.312c-0.209-0.089-0.533-0.598-0.621-0.622c-0.223-0.058-0.33 0.388-0.622 0.3 c-4.546-1.196-10.432-1.71-15.538-2.487C27.372 109.6 20.5 108.6 14.3 107.517z M260.713 107.8 c-0.631 0.6 0.5 2 0.6 2.796C261.967 110.1 260.9 108.6 260.7 107.828z M261.334 108.1 c0.049 1 0.7 1.4 0.6 2.485c1.237 0.3 2.7 0.5 4 0.623c-0.264-1.186-0.926-1.977-1.243-3.107 C263.614 108.1 262.5 108.1 261.3 108.139z M241.135 110.936c1.421 0.7 3.6 0.5 5.3 0.9 c0.076-1.319-0.813-1.673-0.621-3.107c-1.493-0.06-2.96-0.148-4.041-0.621C240.499 108 241.4 110.1 241.1 110.936z M248.285 109.071c-0.727 0-1.452 0-2.176 0c0.309 0.8 0.6 1.6 0.6 2.797c1-0.069 1.3 0.5 2.5 0.3 C248.723 111.3 248.8 109.9 248.3 109.071z M250.149 109.381c-1.244 0.1 0.4 2.2 0.3 3.1 c1.473-0.278 3.7 0.6 4.7 0.622c0.528 0 0.585-0.158 0.621-0.622c1.261 1.2 4 1 6.2 1.2 c-0.102-1.144-0.767-1.72-0.933-2.797C257.293 110.5 253.6 110 250.1 109.381z M249.215 109.4 c-0.779 0.6 0.4 1.9 0.3 2.797C250.307 111.6 249.2 110.3 249.2 109.381z M261.957 110.9 c-0.745 0.8 0.5 2.2 0.6 3.107C263.432 113.2 261.8 112.1 262 110.936z M262.579 111.2 c0.014 1.2 0.7 1.8 0.9 2.797c0.938 0.4 2.7 0 3.4 0.621c0.855-0.875-0.631-2.047-0.621-3.106 C264.716 111.8 264.1 111.1 262.6 111.247z M247.974 140.457c2.159-0.563 3.3-2.345 5.593-3.108 c-2.403-8.266-4.729-16.607-6.836-25.17c-1.643-0.015-3.178-0.139-4.35-0.621c-0.362-0.051-0.555 0.068-0.624 0.3 C244.773 120.3 249.5 128.6 248 140.457z M266.928 111.868c0.488 1.1 0.3 2.8 1.9 2.8 C268.188 113.7 268.5 111.8 266.9 111.868z M270.969 114.975c-0.045-1.199-1.051-1.435-0.934-2.796 c-0.949 0.225-0.913-0.536-1.865-0.311C268.881 113.1 268.7 115.3 271 114.975z M270.659 112.2 c0.472 1 0.9 2 1.2 3.107c1.323-0.184 2.1 0.2 3.1 0.311c-0.316-1.134-0.771-2.129-1.243-3.107 C272.442 112.7 271.7 112.3 270.7 112.178z M4.35 112.178c-0.265-0.057-0.293 0.122-0.312 0.3 c-0.517 9.759-0.116 19.7 0.6 29.21c0.724 9.4 1.5 18.6 4.4 26.103c1.742 1.3 4.3 1.7 6.5 2.5 c0.176-2.102 0.584-3.975 1.24-5.594c-3.251-14.771-3.024-33.02-3.728-50.34c0.112-0.781-1.128-0.838-1.554-0.933 c-1.781-0.395-4.531-0.363-6.525-0.932C4.61 112.5 4.4 112.4 4.3 112.178z M274.387 112.8 c0.375 1 0.8 1.9 1.2 2.797c6.986 1.2 14.8 1.6 21.4 3.107c0.729-0.75-0.435-2.242-0.311-3.417 C289.389 114.4 282.1 113.3 274.4 112.799z M251.081 112.799c-1.139 0.1 0.1 1.8 0.3 2.5 c0.498 1.9 1 3.9 1.6 5.904c1.332 4.8 2.7 9.8 4 14.916c4.17-0.906 7.426-2.727 11.809-3.418 c-2.062-6.227-4.439-12.135-6.526-18.334C258.023 113.7 255.2 113.5 251.1 112.799z M250.149 112.8 c-0.219 2.3 0.9 4.6 1.6 6.837c1.807 6.6 3.7 14 5.6 20.82c0.93-1.183-0.346-2.312-0.621-3.419 c-0.29-1.158-0.281-2.509-0.621-3.729c-0.297-1.059-0.936-2.03-1.243-3.107c-0.178-0.622-0.132-1.194-0.312-1.864 C253.292 123.8 251.4 117.9 250.1 112.799z M310.123 113.733c-0.967-0.403 1.2 2 0.9 3.1 C312.089 115.7 310.5 114.5 310.1 113.733z M16.778 162.83c0.241 1.7 0.311-1.03 0.934-0.933 c2.242-2.068 8.3 0.5 11.5 1.243c6.566 1.5 12.8 2.9 19 4.661c1.143 0.3 2.4 1 3.4 1.2 c0.389 0.1 0.861-0.113 1.2 0c0.666 0.2 1.3 0.7 1.9 0.931c0.925 0.3 1.5 0.3 2.2 0.6 c0.338 0.2 0.6 0.4 0.9 0.623c3.296 2.4 3.6 6.5 5.9 9.942c0.678 1 1.5 2.1 2.2 2.8 c1.494 1.5 3 1.8 4.7 3.418c35.725 9.7 72.2 18.8 108.1 28.278c-0.424-4.459-0.234-9.273 0-14.295 c0.91-19.581 1.235-40.759 2.795-59.973c-46.793-7.419-97.236-15.964-145.737-23.929c-3.653-0.6-10.479-1.68-15.538-2.486 c-1.967-0.313-4.834-1.053-5.282-0.931c-1.122 0.302-0.95-0.284-1.243 0.621c-0.381 1.2 0 3 0 5 c0 6.5 0.3 14 0.6 19.265C14.936 148.9 15.4 156.1 16.8 162.83z M263.2 114.4 c-1.195 0 0.1 1.2 0.3 1.865c0.738 2.3 1.6 4.8 2.5 7.147c0.854 2.4 1.5 4.8 2.5 7.1 c0.268 0.6 0.3 1.8 1.2 1.865C267.844 126.1 265.3 120.5 263.2 114.354z M274.077 129.3 c1.371-1.067-0.216-2.345-0.623-3.417c-0.277-0.733-0.301-1.419-0.621-2.176c-0.578-1.368-1.744-3.674-2.486-5.283 c-0.613-1.333-0.541-2.769-1.863-3.418c-0.42 1.3 0.8 2.3 1.2 3.418c0.236 0.6 0.4 1.2 0.6 1.9 C271.439 123 272.9 126.4 274.1 129.269z M267.549 114.975c-1.471 0.125-2.139-0.555-3.728-0.311 c1.854 6 4.5 11.3 6.2 17.402c1.564 0.2 2.166-0.527 3.729-0.311c0.727-2.427-0.96-4.311-1.865-6.526 c-0.444-1.089-0.795-2.063-1.241-3.107C269.733 120 268.7 117.2 267.5 114.975z M298.314 115.3 c-1.188-0.086 0.1 2.7 0.3 3.417C299.735 118.9 298.4 116.3 298.3 115.286z M269.725 115.3 c1.489 4.3 3.6 8 5 12.43c0.582-0.35 0.66-1.203 1.242-1.553c-1.846-3.439-3.022-7.543-4.971-10.877 C270.553 115.3 270.1 115.3 269.7 115.286z M299.246 115.907c-0.448-0.955-0.097 3.5 0.9 3.1 C299.805 118 299.6 116.9 299.2 115.907z M272.211 115.596c1.213 3.4 2.9 6.4 4 9.9 c0.76-0.587 1.507-1.188 2.485-1.555c-1.155-2.677-2.367-5.297-3.417-8.079C273.997 116.1 273.3 115.7 272.2 115.596z M275.94 116.218c0.895 2.6 2.1 5 3.1 7.458c1.704-0.545 3.882-0.313 5.3 0.311c0.919 1 1.3 3.6 0.6 5.3 c5.129-0.912 8 1.6 5.9 4.972c-0.88 1.408-2.787 2.27-4.352 3.107c-0.171 0.094-1.578-0.186-0.932 0.6 c0.318 1.9 1.7 0.1 2.485-0.311c1.037-0.593 2.112-1.248 2.487-1.863c0.828 0 1.7 0 2.5 0 c1.547-1.664 3.055-3.367 4.662-4.973c1.584-1.586 3.594-2.885 4.66-4.971c-1.03-1.872-1.351-4.45-2.175-6.526 c-0.731 1.3 0.3 3.4 0.6 4.661c-0.384 0.446-1.069 0.589-1.865 0.622c-0.813-1.466-1.031-3.526-1.241-5.594 C290.542 118 283.4 117 275.9 116.218z M73.336 116.218c-0.643 0.4 2.2 0.6 3.4 0.6 C75.876 116.4 74.6 116.3 73.3 116.218z M312.918 118.082c-1.031 0.8 0.6 1.4 0.9 1.9 C314.44 119.6 313.1 118.7 312.9 118.082z M299.246 119.325c-0.94-0.138-0.473 1.734-0.311 2.5 c0.179 0.8 0.6 2.3 1.2 2.174C300.071 122.2 299.5 120.9 299.2 119.325z M315.405 122.7 c-0.408 0.316-1.146 0.305-1.555 0.622c-0.34 1.268-0.131 2.2 1.2 2.486C315.416 125 315.5 123.9 315.4 122.744z M274.698 146.67c1.672-0.205 4.003-1.219 4.971-2.486c0.558-0.727 0.727-2.2 1.244-3.728c0.379-1.124 1.112-2.515 1.243-3.419 c0.119-0.832-0.444-1.775 0-2.485c-1.075-0.254-1.313 0.579-1.864 0c-0.365-0.878-0.063-1.319 0.311-2.175 c1.46-0.612 1.2 2.1 2.2 0.932c1.045-0.067 0.982-2.437 0.934-4.04c-0.05-1.632-0.028-3.137-0.934-3.728 c-4.545-0.546-6.931 2.513-7.457 8.079C274.954 137.5 274.4 142.8 274.7 146.67z M281.534 132.7 c-0.971-0.143-0.993 0.664-0.932 1.553c0.517 0 1 0 1.6 0c0.586 0.6 0.2 2 1.6 1.9 c0.009-0.303 0.381-0.241 0.621-0.311c-0.082-0.955-0.676-1.398-0.932-2.176C282.786 134.2 281.1 134.1 281.5 132.688z M274.698 146.981c-1.32-1.004-0.465-2.855-0.311-4.972c0.348-4.769 0.268-11.496 2.174-14.294 c1.311-1.923 8.055-5.505 7.5 0.933c2.355-3.674-1.988-5.395-5.284-4.04c-0.22 0.09-0.438 0.509-0.62 0.6 c-1.082 0.672-1.216 0.748-2.176 2.486c-0.826 1.496-1.17 2.339-1.553 4.973c-0.299 2.051-0.778 5.191-0.934 7.5 c-0.223 3.278-0.394 7.1 1.6 8.078c3.555-0.174 5.146-2.311 5.904-5.282c-0.549-0.248-0.623 0.827-0.933 1.2 C278.884 145.7 276.4 147.3 274.7 146.981z M302.665 127.094c-3.082 2.614-5.619 5.775-8.701 8.4 c0.891 1.603-1.143 1.892-1.242 3.418c3.889-1.394 7.313-3.251 11.498-4.35C304.257 132 303.2 129.8 302.7 127.094z M284.641 131.755c1.562-0.096 3.7 0.4 4.352-0.622c0.539 2.053-2.18 3.369-4.041 4.04c-0.17 0.5 0.4 1.606-0.311 1.6 c1.276 0.3 6.01-2.056 6.215-4.039c0.076-0.742-0.602-1.281-0.621-2.176c-0.735-0.044-1.584-0.545-2.798-0.622 C286.502 129.8 284 130.1 284.6 131.755z M287.748 132.377c-1.356-0.012-2.808-0.115-3.417 0.6 c0 0.3 0 0.6 0 0.932c0.635 0.8 1.352-0.072 1.863-0.311C286.798 133.3 287.8 133.2 287.7 132.377z M273.765 132.4 c-1.121 0.121-2.083 0.4-3.106 0.621C270.73 134.8 274.2 134 273.8 132.377z M270.346 133 c-0.502-0.088-0.534 0.293-0.932 0.311c0.272 0.5 0.2 1.2 1.2 0.932C270.416 134 270.3 133.5 270.3 132.999z M269.104 133.309c-3.821 0.943-7.377 2.15-10.877 3.418c-0.119 0.162-1.509 0.46-0.621 0.621c0.094 1.3 1.848-0.104 2.488-0.311 c2.625-0.854 6.147-1.981 9.32-2.485C269.454 134 269 133.9 269.1 133.309z M182.095 140.8 c34.175 5.8 68.6 11.4 101.3 18.644c-0.886-4.258 1.492-9.53-0.312-13.672c-2.396-0.952-2.233 0.516-3.729 1.6 c-1.147 0.797-2.568 1.959-3.729 1.864c-1.945-0.158-2.485-1.965-3.418-4.039c-11.783 0.273-22.555-1.281-32.938-2.797 c-6.03-0.879-11.911-1.953-17.714-2.797c-12.679-1.845-24.926-3.426-35.734-5.283c-0.427-0.072-1.623-0.775-2.486-0.311 c-0.276 0.149-1.017 1.734-1.243 2.486C181.747 137.6 181.8 139.3 182.1 140.767z M221.249 134.9 c-0.138 0.276-0.271 0.556-0.621 0.621c0.67 0.7 1.8 0.9 2.8 1.243c0-0.414 0-0.829 0-1.243 C222.288 135.7 222.2 134.8 221.2 134.863z M273.454 134.552c-1.008-0.181-1.445 0.211-2.174 0.3 c0.112 1 0.9 1.4 1.6 1.864C273.294 136.3 273.3 135.4 273.5 134.552z M223.735 136.4 c0.973 1.1 0.615-1.467 0-1.554c-0.879 0.257-0.805-0.438-1.552-0.311c0.203 0.4 0.7 0.6 1.2 0.6 C223.706 135.3 224.5 136.3 223.7 136.417z M286.504 140.146c-0.287 0.9 1 2 1.9 2.2 c1.519 0.3 2.424-0.689 4.352-1.554c1.406-0.632 3.027-1.001 4.349-1.554c0.303-0.127 0.558-0.475 0.933-0.622 c0.926-0.362 2.058-0.815 3.108-1.243c1.483-0.604 3.434-0.682 3.417-2.175c-1.581-0.424-2.914 0.673-4.349 1.2 c-1.366 0.542-2.952 0.994-4.353 1.553c-2.783 1.115-5.452 2.856-8.7 3.108C287.016 140.7 286.6 140.6 286.5 140.146z M270.969 134.863c-0.857-0.101-0.478 1.367-0.311 2.175c0.152 0.7 0.7 1.4 0.6 1.864c-0.725 0.902-1.675-0.583-2.797-0.311 c1.146 0.8 2.3 1.6 4.3 1.555c-0.096-1.132 0.05-2.023 0.311-2.798C272.261 136.7 270.9 136.4 271 134.863z M268.483 140.457c-1.137-0.833-2.904-1.033-4.04-1.865c1.936-0.171 4.2 2 6.8 2.176c-1.285-1.618-4.748-1.054-4.662-4.04 c-0.455 0.271-0.986 0.465-0.932 1.242c-0.918 0.047-2.193-0.903-2.486 0.312c-0.128 0.8 1.1 1 1.6 1.2 c0.485 0.3 1.2 0.7 1.9 1.243C266.985 140.4 267.7 140.4 268.5 140.457z M262.889 138.902c0-0.414 0-0.828 0-1.243 c0.433-0.424 1.533-0.67 1.864-0.311c0.977 0.1 0.821-0.836 1.554-0.932c0.871 0.3 1.4 0.3 2.486-0.311 c0.492-0.254 1.242-0.408 0.932-0.933c-2.981 0.679-6.356 1.606-9.32 2.796c-0.84 0.337-2.353 0.195-2.488 1.6 c0.364 0.1 0.3 0.6 0.3 0.933c2.752-0.161 5 0.2 7.5 0.311C265.193 139.7 263.5 139.8 262.9 138.902z M285.262 155.061c-0.367-6.182-0.848-13.828-1.553-18.645c-0.209 0-0.414 0-0.622 0c-1.056-0.751-0.306 0.5 0.3 0.6 c0.793 5 0.6 10.9 1.2 16.779C284.68 154.2 284.3 155.3 285.3 155.061z M293.032 136.4 c-3.42-0.209-4.029 2.393-6.527 3.107c0.477 1.2 1 1.1 2.2 0.933C290.696 140.2 292.5 138.2 293 136.417z M270.346 136.417c-1.408 0.248-2.894 0.42-3.107 1.864c1.353 0.1 1.594-0.278 3.4 0.3 C270.811 137.6 270.1 137.5 270.3 136.417z M302.665 137.659c0.057-0.264-0.121-0.293-0.311-0.311 c-2.42 1.102-6.681 2.554-9.943 4.041c-1.241 0.564-2.295 1.557-3.107 1.553c-2.268-0.014-3.693-2.049-4.352-4.973 c-0.698 1.9 0.7 4.5 0.3 7.148c2.576 0.2 4.836-1.322 6.837-2.176c1.194-0.509 1.997-0.768 3.106-1.243 c2.201-0.942 4.697-2.022 7.148-3.107C302.326 138.2 302.3 137.7 302.7 137.659z M253.877 138.3 c-2.023 0.151-2.686 1.665-4.352 2.176c1.839 1.3 3.088-0.325 4.662-0.933C253.946 139.2 253.9 138.8 253.9 138.281z M282.776 139.524c-0.67 1.713-1.291 3.475-1.553 5.594c0.725 0 1.4 0 2.2 0C283.127 143.3 283 141.3 282.8 139.524z M254.499 140.457c-0.879-0.258-0.805 0.438-1.555 0.311C252.855 141.6 255 141.8 254.5 140.457z M256.985 141.1 c0.166 1.5 2.1 1.1 3.4 1.243c2.119 0.2 4.3 0.1 6.2 0.311c1.111 0.1 2.7 0.1 3.7 0 c1.275-0.164 2.4 0.3 2.486-1.242C268.007 141.3 262 140.7 257 141.078z M183.028 141.7 c-1.504-0.326-0.857 1.679-0.933 2.176c-0.366 2.438-0.433 5.427-0.622 8.39c-0.674 10.605-0.957 22.811-1.553 33.9 c8.42 1.9 16.2 3.8 24.9 5.593c7.52 1.6 16.9 3.6 25.2 5.281c2.52 0.5 5.1 0.7 7.1 1.6 c3.545 1.5 4.4 4.6 5.9 8.391c0.215 0.6 0.4 1.3 0.6 1.863c0.061 0.2 0.6 0.5 0.6 0.6 c0.699 2.3 1.8 5.2 2.8 7.768c0.217 0.6 0.4 1.2 0.6 1.865c0.062 0.2 0.6 0.5 0.6 0.6 c0.253 0.8 0.4 1.7 0.9 2.486c0.162 0.2 0.4 0.3 0.6 0.621c0.094 0.1 0.2 0.5 0.3 0.6 c0.246 0.3 0.6 0.1 0.9 0.312c0.156 0.1 0.2 0.5 0.3 0.621c0.236 0.2 0.7 0.1 0.9 0.3 c0.229 0.2 1.2 1.1 1.9 1.243c0.482 0.1 1.4 0.2 1.9 0.311c3.263 0.6 7.7 0.9 11.8 1.2 c5.6 0.4 11.6 0.5 16.8 0c-0.221-1.395 0.969-2.67 0.311-4.351c-0.225-0.574-1.26-0.379-1.553-1.242 c-0.072-0.209-0.355-3.899-0.312-4.041c0.285-0.919 0.57-1.138 1.243-1.553c0.245-0.152 1.5 0.1 1.553-0.932 c2.42-16.028 1.676-35.656 0-51.895c-1.576-0.186-1.248-2.273-2.174-3.108C251.378 152.9 217 147.5 183 141.699z M322.241 148.846c-0.26-0.987-0.408 0.551-0.311 0.932c0.598 1.3 0.6 3.2 0.9 4.662c-1.221-1.058-1.469-3.088-2.174-4.662 c-0.142-1.279 1.111-1.165 1.242-2.175c-0.445-0.383-0.588-1.068-0.621-1.864c-1.269 0.987-1.024 3.04-1.242 4.7 c-0.469 3.471-0.367 9 0 13.053c0.421 4.7 1.6 8.9 3.4 11.497c0.97-0.413 1.187-1.452 1.243-2.485 c0.039-0.7-0.498-0.435-0.621-0.933c-0.469-1.908 0.354-4.767 0-6.837c1.123-0.295 0.4 1.2 0.6 1.9 c0.242 0.6 0.334-0.186 0.311-0.62c0-0.415 0-0.83 0-1.244c-0.262-0.773-0.407-1.664-0.311-2.797 c-0.371-0.664-0.587-1.484-1.243-1.863C324.338 156.2 322.6 152.5 322.2 148.846z M321.62 148.8 c-0.893 0.6 0.1 1.9 0 2.797C322.544 151 321.2 150 321.6 148.846z M286.194 156 c-0.609 0.617-1.773 0.199-2.484 0c-0.195 2.5 0.1 4.5 1.9 4.973c0.049-0.365 0.568-0.262 0.932-0.311 C286.475 159 286 157.9 286.2 155.993z M319.134 212.86c0.015-0.795-0.231-0.379-0.621-0.311 c-5.638 8.14-14.466 13.087-25.481 15.848c-0.557-0.087-0.639 0.293-0.311 0.311C304.858 226.8 314.1 221.9 319.1 212.86z M320.999 207.266c0.425-1.357-1.203-0.662-0.932-1.865c0.015-5.072 0.474-10.215 0-15.537c-0.139-1.543-0.295-2.869-0.622-4.351 c-0.339-1.522-1.53-3.438-2.487-4.971c-2.902-4.646-8.818-8.312-13.982-11.187c-5.263-2.93-10.769-5.672-15.849-7.459 c2.638 16.5 2.6 36.5 0.3 53.449c-0.003 0.6 0.6 0.8 0.9 1.242c0.313 0.4 0.5 0.9 0.9 1.2 c-0.236 2.4 0.6 4.143-0.311 5.594c-0.773 1.436-1.756-0.484-2.178 0c-0.195 1.877-0.439 3.703-0.311 5.9 c6.783-1.012 12.738-2.912 18.023-5.593C311.735 220.1 317.8 215 321 207.266z M19.577 163.1 c-0.957 2.255-1.587 4.836-1.865 7.769c0.461 0.4 1.4 0.3 1.2 1.243c2.004-0.793 3.99-1.603 5.904-2.486 c-0.041-1.903 0.016-3.713 0.621-4.972C23.831 163.9 21.7 163.5 19.6 163.14z M52.204 171.2 c-0.353 0.058-0.172 0.3 0 0.31c1.626 4.6 2.8 10.1 1.2 14.295c-0.798 2.205-2.744 4.313-4.973 5 c-1.961 0.579-4.563 0.401-6.525-0.312c-5.109-1.854-11.359-10.47-10.565-19.576c0.154-1.77 0.839-3.242 1.243-4.971 c-1.879-0.09-3.146-0.79-4.971-0.934c-1.399 6.487-0.055 12.8 2.5 18.335c1.755 3.8 4.8 7.6 8.1 10.3 c1.597 1.3 5.3 3.1 8.1 3.728c2.558 0.6 5.7 0.9 9 0c1.162-0.325 2.809-0.977 3.728-1.553 c0.271-0.169 0.367-0.754 0.622-0.932c0.3-0.209 0.676-0.082 0.932-0.311c0.111-0.1 1.139-1.01 1.242-1.243 c0.069-0.151-0.098-0.491 0-0.622c0.191-0.256 0.762-0.363 0.934-0.621c0.251-0.379 0.085-0.832 0.311-1.243 c0.072-0.132 0.571-0.2 0.621-0.312c0.077-0.17-0.082-0.453 0-0.621c0.168-0.342 1.299-2.487 1.243-3.107 c-0.135-1.506-0.774-1.193-1.554-2.485c-0.442-0.36-0.597-0.799-0.934-1.242c-0.566-0.755-1.539-2.118-2.174-3.419 c-1.502-3.07-2.042-6.243-5.595-7.458C53.946 171.9 52.9 171.8 52.2 171.221z M37.599 182.4 c-0.352 0.8 0.9 2.3 1.9 3.107c1.505 1.3 5.4 4.2 9.3 3.108c1.327-0.357 2.001-1.832 3.106-2.796 c-1.061 2.752-3.235 3.976-6.834 3.106c-0.543-0.131-1.719-0.422-2.176-0.622c-0.738-0.32-1.682-1.313-2.487-1.864 c-0.927-0.633-1.854-1.307-2.797-2.485c-2.575-3.22-4.535-8.218-3.729-13.984c0.173-1.237 1.014-2.083 0.621-3.418 c-1.375-0.667-1.574 1.033-1.863 1.864c-0.395 1.141-0.601 3.036-0.621 3.729c-0.25 8 6.4 18.6 14 18.3 c4.031-0.162 6.075-2.773 7.146-6.524c-0.496 0.435-0.795 1.07-0.934 1.865c-1.096-0.519-1.569 0.905-2.485 1.2 c-1.13 0.418-4.313 0.42-5.905 0c-1.352-0.357-2.87-1.471-3.728-2.486c-0.077-0.088-0.584-0.227-0.622-0.31 C39.254 183.8 38.7 182.2 37.6 182.406z M5.592 166.558c-2.764 1.746-4.127 5.198-1.864 8.4 c1.829 2.6 6.8 4.3 10.9 4.972c1.356-1.936 0.947-2.781 0.311-4.661c-0.167-0.492-0.055-1.178-0.311-1.554 c-0.863-1.266-3.409-2.05-4.972-2.797C7.537 169.9 5.3 169.4 5.6 166.558z M36.047 167.2 c-0.229-0.553-0.566-0.045-0.933 0c-1.771 3.049-0.765 10.1 0.6 13.052c0.123 0.3 0.9 2.5 1.6 1.6 c1.33-0.085-0.17-0.958-0.311-1.242c-0.234-0.479-0.384-1.283-0.619-1.864c-0.84-2.063-1.577-4.9-1.243-8.702 C35.199 169 35.4 167.7 36 167.18z M37.288 167.491c-0.05-0.364-0.566-0.262-0.93-0.311 c-0.244 0.691-0.654 1.211-0.622 2.176C36.42 168.9 36.4 167.7 37.3 167.491z M47.853 170 c-3.294-0.745-6.478-1.599-9.632-2.485c-1.133 0.587-2.377 3.335-2.485 5.283c-0.302 5.3 4.6 12.7 7.8 13.4 c5.052 1 7.461-3.558 7.148-8.701C50.469 174.4 48.9 171.9 47.9 169.976z M49.097 170.6 c3.239 4.3 3.3 14.841-2.485 16.158c0.516 0.3 2.811-0.313 3.729-0.931c1.445-0.973 2.926-3.325 3.107-5.283 c0.144-1.564-0.494-3.646-0.932-5.283c-0.436-1.622-1.078-3.053-1.555-4.351C50.012 171.1 50 170.4 49.1 170.598z M288.058 176.502c-0.574-0.755-0.208 2.048-0.311 2.796C288.325 180.1 288 177.2 288.1 176.502z M288.37 181.5 c-0.587-0.514-0.281 0.949-0.312 1.866c-0.03 1 0 2.1 0 2.797c0.589 0.5 0.282-0.949 0.312-1.865 C288.402 183.3 288.3 182.2 288.4 181.473z M179.299 215.967c1.242 0.1 1.724-0.555 3.106-0.311 c0.846 0.1 0.745-1.472 0.933-2.176c0.712-2.656 1.902-5.1 3.418-7.769c0.209-0.368 0.688-0.804 0.932-1.243 c0.52-0.932 0.934-1.83 1.555-2.797c0.756-1.18 1.103-1.663 2.486-2.797c0.508-0.416 0.984-0.699 1.553-1.242 c0.187-0.179 1.393-0.881 2.177-1.244c1.245-0.574 2.657-1.095 4.038-1.553c4.682-1.554 10.83-0.049 15.5 0.9 c5.456 1.1 11.4 2.1 15.5 4.662c1.236 0.8 3 1.9 4.4 2.795c1.524 1 3.8 3.5 5.3 5.3 c4.172 5.1 6.4 12.1 9.3 18.956c1.359-0.64 2.678-0.415 4.041-0.31c3.887 0.3 7.8 1.6 12.1 2.2 c2.029 0.3 4.3 0.5 6.5 0.623c4.14 0.2 7.8 0.4 12.1 0c0.293-0.032 1.5 0.3 1.242-0.623 c-1.064-1.106-2.343-0.906-3.729-0.932c-1.252-0.024-2.779 0.271-4.039 0.311c-5.732 0.179-11.377-0.531-16.781-1.243 c-4.343-0.572-8.169-0.64-10.875-3.107c-0.371-0.339-0.611-0.849-0.934-1.243c-0.282-0.348-0.773-0.679-0.931-0.932 c-0.877-1.403-1.407-3.602-2.176-5.594c-1.397-3.619-2.844-7.371-4.352-11.188c-0.366-0.928-0.792-1.998-1.241-2.797 c-0.992-1.754-2.494-3.031-4.662-3.729c-1.029-0.33-2.443-0.362-3.73-0.621c-16.519-3.322-36.883-7.532-51.893-11.498 c-0.264-0.057-0.294 0.121-0.311 0.311C179.437 196.2 178.5 206.6 179.3 215.967z M251.391 229.3 c0.086 2.7 1.2 4.9 2.8 6.526c0.532 0.5 1.3 1.4 1.6 1.553c0.567 0.4 1.3 0.3 2.2 0.6 c0.537 0.2 1.1 0.7 1.6 0.933c7.877 3 19.4 4.8 30.1 4.04c7.064-0.504 14.158-2.429 19.888-5.283 c1.63-0.813 3.331-1.481 4.972-2.486c0.303-0.187 0.379-0.438 0.621-0.621c0.854-0.653 2.697-1.524 3.729-2.485 c0.883-0.823 1.843-2.276 2.796-3.418c0.305-0.365 0.721-0.653 0.932-0.932c0.258-0.342 0.346-1.182 0.621-1.555 c0.295-0.397 0.689-0.549 0.934-0.932c0.973-1.525 1.998-3.117 2.797-4.973c0.41-0.949 0.54-2.055 0.932-3.107 c0.059-0.16 0.587-0.506 0.621-0.621c0.202-0.67 0.394-1.481 0.623-2.176c0.648-1.977 0.861-2.659 0.621-5.281 c-0.081-0.868-0.231-1.672-0.311-2.486c-0.172-1.729-0.025-3.835-0.311-5.283c-0.199-0.998-1.061-2.26-1.555-3.418 c-0.561-1.317-1.045-2.523-1.554-3.418c-0.173-0.305-0.256-0.811-0.622-0.933c-0.206 0-0.414 0-0.621 0 c0.184 4.974-2.01 10.3 0 14.294c-1.047 3.084-2.75 5.611-4.66 8.08c-1.813 2.339-3.89 4.596-6.217 6.5 c-4.592 3.812-10.552 6.308-17.401 7.77c-7.248 1.545-14.808 2.399-22.684 1.863C266.166 231.6 258.8 230.2 251.4 229.329z M204.469 196.7c-2.352-0.816-4.713 0.3-6.838 1.244c-0.928 0.413-2.089 0.797-2.795 1.242c-0.119 0.076-0.207 0.575-0.311 0.6 c-0.421 0.191-0.737 0.212-1.244 0.623c-0.252 0.205-0.361 0.751-0.621 0.932c-0.29 0.201-0.713 0.059-0.932 0.3 c-0.181 0.206-0.137 0.438-0.312 0.621c-0.322 0.336-0.802 1.496-1.243 2.176c-1.801 2.779-4.951 7.572-4.973 12.1 c1.891-1.114 3.836-2.173 5.595-3.418c0.901-3.964 2.823-7.646 5.284-10.566c0.994-1.182 2.52-2.631 4.038-3.729 c0.497-0.359 1.321-0.592 1.865-0.932C202.837 197.4 203 196.6 204.5 196.7z M210.995 197.3 c-0.127-0.004-0.481-0.396-0.933-0.311c-1.06 0.203-2.044 0.6-3.106 0.934c-2.146 0.674-3.502 1.077-4.972 2.5 c-0.044 0.041-0.291 0.297-0.312 0.311c-2.607 1.783-5.129 4.592-6.836 7.768c-2.244 4.174-2.648 10.063-0.934 15.8 c0.559 1.9 1 2.9 1.9 4.661c0.75 1.5 1.4 2.6 2.5 4.039c0.423 0.6 0.9 1.5 1.2 1.9 c0.781 0.8 2 1.7 3.1 2.487c0.738 0.5 1.3 0.9 2.2 1.554c5.204 3.7 12.3 6.9 22.1 5.9 c1.441-0.146 2.629-0.742 4.039-1.242c1.777-0.631 2.788-1.123 4.351-2.174c0.697-0.471 1.253-1.019 1.865-1.555 c1.183-1.041 2.711-2.14 3.728-3.418c0.258-0.322 0.334-1.103 0.622-1.556c0.21-0.328 0.589-0.662 0.935-1.242 c1.053-1.771 3.486-5.817 3.417-8.7c-0.03-1.202-0.753-2.452-1.243-3.728c-1.256-3.254-2.836-6.939-4.971-9.945 c-1.511-2.123-3.554-4.09-5.284-5.593c-2.202-1.913-4.47-3.489-7.458-4.661c-1.857-0.729-5.035-1.473-8.079-2.176 C216.177 198.3 213.7 197.4 211 197.321z M287.748 216.588c-1.028 1.109-2.481 0.018-3.728 0.621c0 1.5 0 2.9 0 4.4 c0.381 0.6 1.7 0.6 1.9 0.932c0.926 1.308-0.637 0.6 0.3 0c0.912-0.543 1.5 1 2.2 0.3 C289.245 220.8 288.2 218.3 287.7 216.588z M285.883 224.046c-0.576-0.755-0.209 2.049-0.311 2.8 C286.15 227.6 285.8 224.8 285.9 224.046z"/><path d="M174.016 100.059c-1 8.007-1.551 13.749-2.486 21.753c-0.406 3.479-0.936 6.935-1.863 7.8 c-0.393 0.353-1.274 0.461-1.867 0.622c-2.393 0.652-4.953-0.33-6.834-0.622c-8.08-1.257-14.989-2.063-22.995-3.728 c-0.982-0.205-1.771-0.009-2.487-0.311c-3.08-1.299-1.758-5.724-1.242-9.634c0.935-7.076 1.658-13.674 2.485-20.509 c0.28-2.312 0.997-5.005 2.176-5.594c1.589-0.793 5.6 0.4 8.1 0.622c3.057 0.3 5.6 0.4 8.7 0.6 c2.959 0.3 5.8 0.7 8.4 0.932c3.17 0.3 6.1 0.1 8.4 0.933c0.413 0.2 0.3 0.4 0.6 0.6 C175.184 95.3 174.4 97.1 174 100.059z M173.394 93.845c-2.411-1.202-5.3-1.289-8.078-1.555 c-8.443-0.806-17.46-1.509-26.103-2.174c-1.91 1.552-1.756 4.65-2.177 7.768c-0.698 5.196-1.452 11.21-2.175 17.1 c-0.467 3.808-1.938 7.3 0 9.634c-0.057 0.3 0.1 0.3 0.3 0.311c7.957 1.4 16.5 2.9 25.5 4.3 c2.246 0.4 6.9 1.3 8.4 0.311c1.428-0.985 1.854-5.751 2.174-8.39c0.771-6.351 1.355-12.241 2.175-18.334 C173.803 99.8 174.6 96.7 173.4 93.845z"/><path d="M171.219 111.247c-0.326 2.592-0.576 5.381-0.932 8.079c-0.439 3.321-0.449 7.538-1.864 9 c-0.413-0.062-0.401 0.511-0.624 0.622c-0.285 0.143-0.915-0.035-1.242 0c-2.636 0.281-4.443-0.566-6.525-0.934 c-5.969-1.051-11.01-1.792-16.469-2.796c-2.956-0.543-5.648-0.969-8.08-1.864c-1.336-2.415-0.375-5.063 0-7.769 c0.79-5.662 1.512-11.1 2.176-16.158c0.346-2.623 0.078-5.632 1.555-7.769c4.395-1.036 9.9 1.1 13.7 0.3 c0.34-0.068 0.2 0.3 0.3 0.311c0.921 0.4 2.3 0.2 3.4 0.312c2.566 0.3 5.3 0.7 8.1 0.9 c2.744 0.2 6 0.1 8.1 1.864C173.2 99.8 172 105.4 171.2 111.247z M168.735 127.1 c-1.023 0.428-2.086 0.815-3.108 1.243C166.573 129.1 168.8 128.4 168.7 127.094z M168.735 94.5 c0.982 3.4 2 6.7 2.8 10.254c0.531-2.76 1.398-6.572 0.621-9.633C171.276 94.6 170.2 94.3 168.7 94.466z M138.902 93.534c3.769 0.2 6.8 1 10.6 1.242c0-0.725 0-1.449 0-2.175c-0.726-0.561-1.812-0.212-2.797-0.312 C143.573 92 139.4 90.5 138.9 93.534z M159.412 104.41c-0.674-3.365-0.487-7.592-0.932-11.186 c-2.21 0.24-3.466-0.47-5.595-0.312c-1.026 1.828-4.19 6.97-3.418 9.633c0.365 1.3 2 2.1 3.7 2.5 c1.359 0.3 2 0.2 3.1 0.311c0.574 0.1 0.3 0.1 0.9 0C158.055 105.2 158.8 104.7 159.4 104.41z M152.264 92.602c-0.725 0-1.451 0-2.176 0c-0.104 1.2 0.6 1.7 0.3 3.107c-3.954-0.192-8.393-1.551-11.81-1.242 c-0.476 1.5 1.3 1.4 2.2 1.553c2.687 0.6 6.5 0.5 9 1.243c0.361 0.1 0.555-0.069 0.623-0.311 C150.786 95.3 151.9 94.4 152.3 92.602z M159.101 93.534c-0.087 3.917-0.061 7.7 0.9 10.6 c-0.609 1.15-2.04 1.481-3.418 1.865c0.006 7.1 0.5 13.8 0.3 21.13c2.142 0.1 3.8 1.1 5.6 0.9 c2.396-0.17 4.096-2.078 6.527-2.174c0.514-1.889 0.319-3.486-0.933-4.351c0.235-1.317 1.296-1.811 1.864-2.797 c0.361-2.206 0.35-4.317 0.621-6.525c0.252-2.057 1.068-4.24 0.932-6.214c-0.068-1.007-0.627-2.021-0.932-3.108 c-0.817-2.907-1.354-5.889-2.485-8.701C164.775 94.3 162.4 93.5 159.1 93.534z M138.281 96.6 c0.246 1.2 2 0.5 2.8 0.622c2.725 0.3 6.5 1 9 0.621c-1.389-0.605-3.369-0.642-5.283-0.931 c-1.756-0.266-3.578-0.873-4.971-0.933C139.417 96 138.3 95.5 138.3 96.641z M138.281 97.6 c-0.1 0.73-0.491 1.167-0.311 2.176c3.622 0.1 7.9 1.2 11.2 0.622c-0.226-0.95 0.535-0.914 0.311-1.865 C145.622 98.3 142.1 97.8 138.3 97.573z M138.281 100.059c-0.265-0.057-0.294 0.121-0.311 0.3 c0.058 0.264-0.122 0.293-0.312 0.311c-0.396 3.824-0.75 7.715-1.243 11.498c-0.476 3.663-2.067 7.377-0.622 10.9 c2.205 1.2 3.8 0.9 6.2 0c2.199-0.835 4.916-2.266 7.457-2.796c-4.15-1.34-9.324-1.656-13.674-2.797 c2.196-0.192 4.7 0.5 7.1 0.932c2.462 0.4 5 1.1 7.5 1.244c-0.061 2.3 0.5 4 0.3 6.5 c1.699-0.044 3 0.4 4.3 0.621c-0.249-7.105-0.493-14.215-0.932-21.131c-2.932-0.382-5.026-1.604-5.282-4.662 C145.125 100.9 141.5 100.7 138.3 100.059z M155.682 105.653c-0.312 0-0.622 0-0.932 0 c-0.103 7.4 0.7 13.8 0.6 21.131c1.093 0.1 0.601-1.454 0.622-1.865c0.268-5.376 0.023-13.153-0.311-18.334 C155.682 106.3 155.7 106 155.7 105.653z M169.977 119.947c-0.771-0.301-2.17 1.838-0.621 2.5 C170.252 122.3 169.1 120.1 170 119.947z M150.088 120.258c-3.134 1.321-6.466 2.441-9.632 3.7 c2.909 0.9 6.5 1.2 9.6 1.865C150.088 124 150.1 122.1 150.1 120.258z"/><path d="M195.769 96.641c6.663 0.5 14.4 1.7 21.4 2.175c0.15 2.884-0.588 5.987-0.932 9 c-1.122 9.844-1.965 19.59-3.418 28.588c-8.887-1.369-17.936-2.573-27.035-3.729c1.218-8.829 2.293-18.364 3.418-26.724 c0.394-2.923 0.502-6.023 1.554-8.701C192.208 95.8 194 96.5 195.8 96.641z M216.899 101 c-0.943-0.406-0.863 0.802-1.244 1.244c-0.434 0.506-1.095 0.946-1.553 1.553c-1.645 2.181-3.462 4.857-4.972 7.5 c-0.399 0.688-0.53 1.559-0.933 2.174c-0.076 0.117-0.575 0.209-0.621 0.312c-0.189 0.418-0.209 0.74-0.621 1.2 c-0.533 0.648-1.395 0.965-1.555 1.865c2.59-0.831 6.016-2.475 9.321-1.554c0.87-0.789 0.478-2.015 0.624-3.107 C215.825 108.6 216.2 104.3 216.9 100.991z M187.067 128.959c0.728 1.3 2.4 0.3 3.4 0 c1.037-0.307 2.318-0.786 3.107-1.244c0.129-0.074 0.203-0.572 0.311-0.621c1.519-0.686 2.903-2.665 4.04-3.729 c-1.231 3.223-2.448 6.458-3.729 9.633c0.928 0.8 2.5 0.7 3.7 0.932c3.442 0.5 7.9 0.9 11.8 1.6 c0.654-3.657-1.808-4.199-1.554-7.458c-0.771-0.68-1.201-1.697-1.863-2.485c0.813-4.055-2.608-5.432-1.244-9.012 c-0.233-1.167 1.188-0.678 1.244-1.554c0.998-0.789 1.371-2.023 2.174-3.417c0.352-0.609 0.914-1.005 1.243-1.554 c0.384-0.637 0.538-1.571 0.933-2.175c0.076-0.117 0.575-0.209 0.621-0.311c0.648-1.44 2.008-3.239 3.107-4.661 c0.865-1.12 1.922-2.084 2.486-3.418c-6.221-0.987-14.285-1.616-21.44-2.486c-2.051-0.25-3.083-0.53-4.352 0.6 c-0.05 0.4 0.1 0.6 0.3 0.621c0.753 2.1 1.9 4.2 3.1 6.216c0.897 1.5 1.5 3 2.2 5.3 c0.762 2.6 1.3 4.7 3.4 6.215c-0.678 0.521-0.209 1.742-0.622 2.485c-0.584 1.054-2.176 1.332-3.105 2.2 c-0.34 0.306-0.311 0.854-0.622 1.244c-0.214 0.266-0.723 0.36-0.933 0.621c-1.115 1.388-2.8 3.776-4.352 5 c-0.271 0.209-0.674 0.113-0.932 0.311C189.151 128 188.2 129.2 187.1 128.959z M210.062 135.5 c1.023 0 1.5 0.5 2.8 0.312c0.419-6.935 1.45-13.258 2.176-19.888c-4.265-0.121-7.898 0.389-9.945 2.5 c0.336 1.7 1.1 3 1.9 4.351c-0.96 2.1 0.4 4 1.6 4.972c-0.311 2.3 0.8 3.2 1.6 4.4 C210.062 133.2 210.1 134.3 210.1 135.484z M196.702 125.852c-0.79-0.285-1.76 1.512-2.799 2.2 c-1.135 0.725-2.646 0.92-3.729 1.554c0.578 0.7 0.2 2.3 0.3 3.419c1.474-0.23 2.1 0.3 3.4 0.3 C194.688 130.7 195.5 128.1 196.7 125.852z M195.769 121.19c-0.649-0.416-3.468 1.354-4.352 2.5 c-0.767 0.981-0.735 2.322-1.554 3.108c-0.869-2.092 1.196-3.515 2.486-4.661c1.043-0.927 2.321-1.709 4.041-2.486 c1.031-0.467 2.025-0.606 2.795-1.244c-0.424-0.452 0.375-1.717 0.311-2.174c-0.182-1.306-1.945-2.283-2.486-3.419 c-0.176-0.37-0.122-1.304-0.309-1.863c-0.194-0.575-0.493-0.775-0.621-1.244c-0.424-1.517-0.491-3.047-1.244-4.35 c-0.074-0.128-0.572-0.203-0.623-0.311c-0.072-0.164 0.094-0.47 0-0.622c-0.074-0.123-0.572-0.205-0.621-0.311 c-0.69-1.532-2.021-4.095-2.485-5.905c-0.9 0.86-0.778 2.267-0.933 3.419c-1.143 8.569-2.125 18.065-3.418 27 C191.092 127.5 192.8 123.7 195.8 121.19z M189.864 129.58c-0.971 0.67-2.857-0.056-3.418 0.311c0 0.8 0 1.7 0 2.5 c1.482-0.24 2 0.5 3.4 0.311C190.063 131.2 189.5 130.5 189.9 129.58z"/><path d="M29.209 120.568c-0.707 0.113-2.633-0.393-4.039-0.621c-1.492-0.243-2.777-0.423-4.041-0.622 c-2.896-0.457-6.814-0.513-6.524-3.107c2.382-0.095 5.5 0.7 8.4 1.242c2.227 0.4 4.6 0.9 6.2 1.2 c0.647 0.2 2.12-0.317 1.9 0.934C30.485 119.5 30 120.4 29.2 120.568z M30.141 119.9 c-0.845-1.075-2.449-0.689-3.729-0.933c-3.107-0.592-7.438-1.624-11.187-2.175c0.452 1.9 4.5 1.8 7.1 2.2 C25.013 119.4 26.9 120 30.1 119.947z"/><path d="M30.453 122.744c-0.367 0.151-0.704 0.331-0.933 0.622c-3.937-0.687-9.091-1.057-12.432-2.175 c-1.23-0.413-3.066-0.228-2.794-2.175c5.817 0.6 11.1 1.8 16.5 2.797C30.777 122.2 30.6 122.5 30.5 122.744z M30.141 122.744c-2.202-1.237-5.049-1.065-7.769-1.554c-2.53-0.455-5.063-1.185-7.457-1.553c0.204 1.4 1.9 1 2.8 1.2 c1.063 0.3 2.1 0.4 3.1 0.621C23.788 122 26.3 122.9 30.1 122.744z"/><path d="M30.453 125.541c-1.419 1.225-3.016 0.387-5.282 0c-1.511-0.259-3.01-0.367-4.352-0.622 c-2.869-0.547-6.249-0.954-6.524-3.107c2.521-0.379 5.1 0.7 7.8 1.242c2.817 0.6 5.8 0.8 8.4 1.6 C30.574 125.1 30.8 125.1 30.5 125.541z M30.141 125.541c-4.244-1.557-9.715-1.887-14.293-3.108 c-0.529-0.114-0.587 0.242-0.622 0.621c0.251 0.1 0.3 0.3 0.6 0.311C20.406 124.2 25.6 125.8 30.1 125.541z"/><path d="M23.926 127.715c-2.812-0.564-7.11-0.889-8.7-1.864c-0.418-0.205-0.579-0.665-0.621-1.243 c2.444-0.239 5 0.7 7.8 1.243c2.792 0.5 5.8 0.8 8.4 1.553C29.836 130 26.3 128.2 23.9 127.715z M16.159 125.229c-0.311 0-0.621 0-0.933 0c0.788 0.9 2.2 1 3.4 1.244c2.28 0.5 4.5 0.7 7.5 1.2 c0.928 0.2 3.3 1.1 3.7 0.622c0.525-0.526-3-0.851-3.418-0.933C23.195 126.8 19 125.9 16.2 125.229z"/><path d="M30.453 136.417c-1.273 1.11-3.155 0.398-5.282 0c-1.29-0.241-2.523-0.689-3.729-0.933 c-2.859-0.573-6.674-0.473-6.525-3.106c5.496 0.7 10.5 1.9 15.5 3.106C30.574 135.9 30.8 136 30.5 136.417z M30.141 136.417c-0.857-0.91-2.197-0.675-3.418-0.933c-2.99-0.632-6.848-1.711-10.564-2.175c-0.383-0.348-0.637-0.271-0.621 0.3 c1.536 0.9 3.6 1.1 5.6 1.554C24.111 135.8 27 136.6 30.1 136.417z"/><path d="M198.565 159.1c0.791 0 1.2 0.5 1.2 1.243c-1.43 1.292-2.851 3.153-5.282 3.4 c-3.442 0.376-6.91-1.564-8.391-3.729c-1.065 0.414-2.436-0.363-3.729-0.623c-0.421-1.07 0.273-2.525 0.622-3.729 c1.996-0.131 3.7 0.1 4 1.554C188.954 153.1 198.1 154.7 198.6 159.1z M187.377 156.9 c-0.05 0.4 0.1 0.6 0.3 0.621c3.463 0.7 7 1.3 10.6 1.863C197.983 155.2 190 154.1 187.4 156.926z M197.943 161.897c-3.771-0.476-7.638-0.855-10.876-1.863c-0.773 0.7 0.8 1.4 1.6 1.9 c1.142 0.7 3.2 1.6 5 1.555C195.497 163.4 196.6 162.4 197.9 161.897z M183.65 156.9 c-0.989 0.4 1.1 0.3 1.6 0.31c-0.178 0.5 0.4 1.826-0.311 1.864c0.975 1.3 0.261-1.575 0.934-1.553 C185.782 156.7 184.5 157 183.7 156.926z M183.028 158.168c-0.268 1.2 1.4 1.1 1.9 0.621c0-0.311 0-0.621 0-0.932 C184.391 157.3 183.3 157.6 183 158.168z M186.135 158.479c0.457 1.4 2.7 1.2 4.3 1.6 c2.605 0.5 5.6 1.6 8.4 0.31c-2.031-0.374-4.367-0.868-6.525-1.243C190.154 158.7 188 158.2 186.1 158.479z"/><path d="M302.975 177.125c-0.963 2.59-4.178 5.171-6.216 5.281c-2.112 0.116-4.076-1.188-4.66-2.485 c-0.052-0.114-0.554-0.173-0.621-0.311c-0.936-1.863-0.396-7.33 0.621-8.389c1.119-1.17 2.77-2.971 4.039-3.42 c1.065-0.377 1.661-0.266 2.5 0c0.983 0.3 2.5 0.9 3.1 1.555c0.277 0.3 0.3 1 0.6 1.6 c0.233 0.4 0.6 0.9 0.9 1.243C303.301 174 303.4 176.1 303 177.125z M300.49 170 c0.392-0.812-1.651-1.701-3.42-1.554c-3.72 0.311-6.164 5.766-5.281 9.635c0.634 2.8 4.4 4.8 7.1 2.8 c0.479-0.165 0.021-0.325-0.311-0.311c-0.431 0.609-2.636 0.379-3.108 0c-3.318-2.735-1.543-9.545 2.178-10.877 C298.536 169.9 300.2 169.3 300.5 169.976z M295.516 180.232c3.967 1.7 7.627-2.952 7.148-6.837 c-0.174-1.411-1.156-3.09-2.485-3.419C295.531 168.8 292.1 176 295.5 180.232z"/><path d="M320.999 162.208c-0.637 1.5 0.2 3.8 0.6 5.594c0.408 1.7 0.4 4 2.2 4.4 C322.875 168.8 321.9 165.6 321 162.208z"/><path d="M39.463 177.125c0.701 0.146-0.714-1.688 0.312-1.865c-0.878-1.252-0.309 1.526-1.243 1.2 C38.624 177.1 39.4 176 39.5 177.125z"/><path d="M41.018 176.812c0.734-0.087-0.355-0.829-0.312-1.242c-0.687 0.039-0.13 1.318-0.311 1.9 c-0.271 0.47-0.465-0.086-1.243 0.311c0.162 0.5 0.5 0.8 0.6 1.242c0.802-0.074-0.428-0.534 0-1.242 C40.786 179.1 40.6 175.9 41 176.812z"/><path d="M297.381 197.944c0.653-6.695 5.171-14.125 9.944-15.538c3.386-1.001 6.2 1.3 7.1 3.4 c0.85 1.8 1.3 5.2 0.9 8.077c-0.199 1.789-0.992 4.209-1.865 5.904c-0.813 1.584-2.383 3.742-3.417 4.7 c-0.257 0.229-0.633 0.101-0.933 0.311c-0.256 0.18-0.352 0.758-0.621 0.933c-0.678 0.444-1.555 0.665-2.176 0.9 c-1.662 0.713-3.292 1.258-5.282 0.932C298.38 205.5 296.9 202.6 297.4 197.944z M312.918 185.2 c0.191-0.872-1.471-1.956-2.796-2.174c-1.909-0.316-2.94 0.089-4.352 0.932c-1.383 0.827-2.606 1.952-3.728 3.4 c-2.525 3.304-5.343 11.584-3.108 16.47c0.499 1.1 1.3 2.4 2.2 2.797c2.552 1.1 4.653-0.658 6.836-1.555 c-1.753-0.108-2.524 1.03-4.349 0.311c-4.701-1.85-2.65-9.891-0.623-13.672c0.347-0.647 0.605-1.355 0.934-1.865 c0.075-0.118 0.574-0.207 0.619-0.311c0.311-0.689 1.143-2.102 1.865-2.797c1.064-1.021 2.786-2.109 3.108-2.176 C310.946 184.3 312.1 184.5 312.9 185.203z M303.286 205.09c2.143 0.2 3.7-0.164 5.283-0.932 c3.422-1.656 7.225-9.316 6.215-15.227c-0.473-2.757-2.551-4.936-5.904-3.419c-3.16 1.431-7.379 7.823-7.769 13.1 C300.928 201 301.3 203.6 303.3 205.09z"/><path d="M232.435 217.52c1.592 3.9 1.9 9 0.6 11.809c-0.5 1.082-1.339 2.464-1.867 3.1 c-0.838 1.028-1.063 1.039-2.174 1.865c-0.499 0.371-0.802 0.99-1.243 1.243c-2.353 1.347-5.146 1.947-8.701 1.6 c-4.394-0.487-9.589-3.208-11.808-5.592c-0.222-0.237-0.098-0.673-0.311-0.932c-0.707-0.861-1.578-1.532-2.176-2.486 c-1.225-1.958-2.285-4.442-2.796-6.525c-1.462-5.963 0.89-11.249 4.351-13.984c0.662-0.524 1.604-0.818 2.484-1.242 c0.928-0.447 1.775-1.113 2.486-1.244c4.466-0.816 8.6 0.7 11.2 1.865c0.63 0.3 1.2 0.9 1.9 1.2 c0.851 0.5 1.8 0.7 2.2 0.934c1.498 1.1 3.4 3.6 4.3 4.971c0.496 0.7 1 1.4 1.2 1.9 c0.119 0.26-0.107 0.7 0 0.932C232.188 217 232.3 217.2 232.4 217.52z M216.588 205.7 c-3.066-0.776-5.898-0.14-8.08 0.933c-0.898 0.442-1.336 0.91-2.174 1.553c-0.244 0.187-0.708 0.396-0.934 0.6 c-0.225 0.227-0.274 0.839-0.621 1.243c-0.476 0.554-1.723 1.908-2.175 3.108c-1.998 5.3 0.4 11.3 2.8 14.9 c1.594 2.4 3.3 3.9 4.7 5.281c0.265 0.3 0.7 0.4 0.9 0.622c0.293 0.3 1.3 0.5 2.5 0.9 c0.912 0.3 1.9 0.9 3.1 1.245c3.371 1 7.7 0.6 10.565-0.934c2.034-1.094 3.058-2.075 4.349-4.038 c2.339-3.555 2.492-9.293 0.311-14.916c-0.209 1.3 0.4 2.6 0.6 3.729c0.866 5.52-0.485 9.686-3.728 12.4 c-0.247 0.209-0.651 0.099-0.933 0.312c-0.253 0.188-1.2 1.015-1.864 1.243c-2.577 0.877-6.93 1.336-9.633 0.6 c-7.397-1.959-13.363-9.59-12.432-18.644c0.275-2.667 1.992-6.401 4.041-8.08C209.971 206.2 212.4 205.9 216.6 205.712z M204.469 215.657c0.382-0.719 0.779-1.454 1.242-2.176c0.655-1.021 1.215-1.703 2.176-2.486c1.722-1.404 4.593-2.61 8.701-2.176 c6.781 0.7 12.9 7 13.7 13.363c0.351 2.746-0.185 5.418-1.242 7.146c-0.188 0.305-0.438 0.38-0.622 0.6 c-0.161 0.211-0.12 0.712-0.311 0.932c-0.499 0.573-1.455 1.064-2.175 1.552c-0.822 0.56-1.441 1.423-2.486 1.2 c-0.057 0.3 0.1 0.3 0.3 0.312c1.221-0.307 2.276-0.59 3.107-1.243c0.334-0.262 1.365-0.743 1.865-1.242 c0.244-0.248 0.088-0.636 0.311-0.932c0.116-0.155 0.515-0.165 0.622-0.311c0.171-0.237 0.11-0.67 0.31-0.934 c0.109-0.146 0.53-0.173 0.621-0.311c0.273-0.41 0.318-1.106 0.621-1.554c0.201-0.294 0.654-0.647 0.932-0.933 c0.291-3.963 0.316-7.008-0.932-9.633c-0.814-1.719-2.479-2.941-3.728-4.35c-0.688-0.778-1.24-1.387-1.864-2.176 c-0.536-0.679-0.943-1.496-1.555-2.176c-2.965-2.104-9.723-2.804-13.672-0.621c-0.475 0.262-0.795 0.893-1.243 1.2 c-0.584 0.457-1.179 0.576-1.554 0.933c-0.341 0.327-0.813 1.076-1.242 1.554c-0.439 0.485-1.108 0.978-1.244 1.2 C204.608 213.5 204.7 214.7 204.5 215.657z M216.278 209.751c-3.338-0.354-5.85 0.286-8.08 2.2 c-1.078 0.914-1.781 1.365-2.486 2.797c-0.66 1.344-1.171 3.238-0.932 5.904c0.176 2 0.7 3.7 1.6 5.3 c0.719 1.4 2.4 3.6 3.7 4.662c0.968 0.8 2.3 1.3 3.4 1.862c1.325 0.7 2.5 1.4 3.4 1.6 c6.223 0.9 12.25-3.207 12.741-8.7c0.237-2.654-0.747-5.261-1.865-7.459c-1.183-2.318-2.228-4.061-3.729-5.281 c-0.295-0.24-1.165-0.368-1.552-0.623c-0.488-0.318-0.581-0.754-0.935-0.932C220.001 210.2 218.2 210 216.3 209.751z"/><path d="M216.588 223.114c-0.277 0.191-0.556 0.377-0.621 0c-0.51 0.4 1 1.4 1.6 1.864c0.575 0.843-0.08-0.71-0.621-0.621 C217.523 223.7 216.8 223.7 216.6 223.114z"/></g></svg>